<svg width="1103" height="1102" xmlns="http://www.w3.org/2000/svg" preserveAspectRatio="xMidYMid meet">
 <metadata>Created by potrace 1.15, written by Peter Selinger 2001-2017</metadata>

 <g>
  <title>background</title>
  <rect fill="none" id="canvas_background" height="1104" width="1105" y="-1" x="-1"/>
 </g>
 <g>
  <title>Layer 1</title>
  <g id="svg_1" fill="#000000" transform="translate(0,1200) scale(0.10000000149011612,-0.10000000149011612) ">
   <path stroke="null" id="svg_2" d="m-2460,6515.000024l0,-5975.000024l7962.500095,0l7962.500095,0l0,5975.000024l0,5975.000024l-7962.500095,0l-7962.500095,0l0,-5975.000024zm15904.098628,5951.100024c7.9625,-9.958333 9.953125,-1572.42084 8.957813,-5962.05419l-2.985938,-5949.108357l-7936.62197,-2.9875c-5859.404758,-0.995833 -7939.607908,0.995833 -7949.561033,8.9625c-11.94375,9.958333 -13.934375,970.937504 -13.934375,5959.06669c0,3270.31668 2.985938,5950.10419 6.967188,5953.09169c2.985938,3.983333 3577.153168,6.970833 7940.60322,6.970833c6659.636017,0 7936.62197,-1.991667 7946.575095,-13.941667z"/>
   <path stroke="null" id="svg_3" d="m5069.539153,11901.462545c-1140.628139,-95.6 -2165.800026,-516.837502 -3055.609412,-1257.737505c-154.273439,-128.462501 -509.600006,-483.975002 -637.99532,-638.329169c-746.484384,-898.24167 -1170.487514,-1936.895841 -1258.075015,-3081.108346c-12.939063,-173.275001 -12.939063,-665.216669 0,-838.49167c87.587501,-1143.216671 505.618756,-2166.933342 1248.12189,-3061.191679c128.395314,-154.354167 503.628131,-529.783335 657.90157,-658.245836c850.992198,-708.037503 1807.487522,-1115.333338 2901.335972,-1235.829172c236.884378,-25.891667 917.678136,-25.891667 1154.562514,0c1094.843763,120.495834 2067.264087,534.762502 2921.242222,1245.787505c154.273439,128.462501 509.600006,483.975002 637.99532,638.329169c746.484384,898.24167 1170.487514,1935.900008 1258.075015,3081.108346c12.939063,173.275001 12.939063,665.216669 0,838.49167c-87.587501,1143.216671 -504.623444,2166.933342 -1248.12189,3061.191679c-128.395314,154.354167 -503.628131,529.783335 -657.90157,658.245836c-846.015635,704.054169 -1802.510959,1113.341671 -2886.406285,1233.837505c-175.175002,19.916667 -856.964073,28.879167 -1035.125012,13.941667zm1383.484392,-2140.045842c392.15313,-9.958333 546.426569,-19.916667 716.625009,-45.808334c534.482819,-81.658334 972.420324,-342.566668 1235.182827,-738.908336c116.451564,-174.270834 224.940628,-440.158335 271.720316,-664.220836c64.695313,-307.712501 73.653126,-577.583336 67.681251,-1976.729175c-3.98125,-1161.141671 -6.967188,-1261.720838 -46.779688,-1508.687506c-85.596876,-533.766669 -329.448441,-938.075004 -734.540634,-1217.904172c-207.025002,-142.404167 -492.679693,-248.958334 -793.264072,-294.766668c-249.82344,-37.841667 -363.289067,-40.829167 -1662.171895,-40.829167c-1295.896891,0 -1404.385954,2.9875 -1662.171895,40.829167c-582.257819,85.641667 -1054.03595,388.375002 -1306.845328,837.495837c-168.207815,299.745835 -246.837503,609.450002 -270.725003,1078.487504c-27.86875,537.750002 -20.901563,2391.991676 9.953125,2748.500011c22.892188,261.904168 68.676563,470.033335 145.315627,666.212503c89.578126,228.045834 195.081252,390.366668 367.270317,564.637502c172.189065,174.270834 342.387504,288.791668 557.375007,375.429168c233.89844,93.608334 434.951568,136.429167 763.404697,162.320834c282.668753,20.9125 1714.923458,29.875 2341.970341,13.941667z"/>
   <path stroke="null" id="svg_4" d="m4417.609457,9197.775035c-466.801568,-17.925 -658.896883,-46.804167 -873.884385,-134.437501c-127.400002,-51.783334 -224.940628,-115.516667 -325.467191,-210.120834c-106.498439,-100.579167 -172.189065,-188.212501 -227.926565,-301.737501c-91.568751,-188.212501 -135.362502,-380.408335 -157.259377,-694.095836c-17.915625,-257.920834 -17.915625,-2436.804176 0,-2694.725011c33.840625,-490.945835 132.376564,-744.883336 378.218755,-979.900004c204.039065,-195.183334 438.932818,-289.787501 803.217197,-325.637501c239.870315,-23.9 796.25001,-32.8625 1715.918771,-27.883333c928.626574,4.979167 1169.492202,11.95 1369.550016,41.825c187.118752,27.883333 386.181255,95.6 517.562506,175.266667c156.264064,94.604167 312.528129,265.887501 393.148442,432.191668c158.254689,323.645835 179.156252,562.645836 179.156252,2041.458341c0,782.725003 -9.953125,1252.758338 -30.854688,1478.812506c-26.873438,298.750001 -105.503126,532.770835 -237.87969,708.037503c-60.714063,80.6625 -196.076565,211.116668 -272.715628,261.904168c-186.12344,123.483334 -421.017193,190.204167 -763.404697,216.095834c-140.339064,9.958333 -2236.467214,20.9125 -2467.379717,12.945833zm2901.335972,-576.587502c74.648438,-19.916667 153.278127,-64.729167 195.081252,-111.533334c16.920313,-19.916667 47.775001,-69.708334 66.685938,-110.5375c29.859375,-62.7375 34.835938,-84.645834 34.835938,-145.391667c0,-167.300001 -123.418751,-326.633335 -282.668753,-364.475001c-119.437501,-28.879167 -265.748441,11.95 -355.326567,98.5875c-47.775001,45.808334 -97.540626,145.391667 -111.475001,220.079168c-31.85,170.287501 99.531251,364.475001 278.687503,412.275002c71.662501,18.920833 102.517189,18.920833 174.17969,0.995833zm-1513.870331,-472.025002c601.168757,-121.491667 1080.909388,-544.720836 1274.000015,-1126.287504c153.278127,-464.058335 93.559376,-961.975004 -166.217189,-1379.229172c-407.082817,-655.258336 -1196.365639,-945.045837 -1917.96721,-706.045836c-359.307817,119.5 -661.88282,346.550001 -861.940635,646.295836c-271.720316,408.291668 -358.312504,883.30417 -242.856253,1335.412505c72.657813,283.812501 207.025002,523.808335 413.054692,738.908336c265.748441,277.837501 591.215632,448.125002 962.467199,504.887502c135.362502,20.9125 400.11563,13.941667 539.459381,-13.941667z"/>
   <path stroke="null" id="svg_5" d="m5368.132906,7610.416695c-367.270317,-41.825 -700.700008,-281.820834 -860.945323,-619.408336c-159.250002,-335.595835 -137.353127,-748.86667 55.737501,-1061.558338c59.718751,-95.6 240.865628,-279.829168 340.396879,-345.554168c85.596876,-55.766667 200.057815,-105.558334 313.523441,-136.429167c71.662501,-19.916667 105.503126,-22.904167 280.678128,-21.908333c220.959378,0 270.725003,8.9625 437.937505,77.675c256.790628,104.5625 491.684381,346.550001 590.22032,606.462502c59.718751,159.333334 74.648438,254.933334 68.676563,450.116668c-5.971875,187.216667 -19.90625,258.916668 -80.620313,402.316668c-50.760938,120.495834 -117.446876,213.108334 -238.875003,335.595835c-164.226564,163.316667 -314.518754,247.962501 -522.539069,292.775001c-104.507814,22.904167 -277.692191,31.866667 -384.19063,19.916667z"/>
  </g>
 </g>
</svg>