<svg id="svg" version="1.1" width="400" height="202.11920529801324" viewBox="0 0 400 202.11920529801324" xmlns="http://www.w3.org/2000/svg" xmlns:xlink="http://www.w3.org/1999/xlink" ><g id="svgg"><path id="path0" d="M356.057 5.428 C 355.998 5.523,355.387 5.659,354.700 5.731 C 353.966 5.808,352.919 6.112,352.166 6.468 C 351.461 6.801,350.792 7.074,350.682 7.074 C 350.571 7.074,350.480 7.165,350.480 7.276 C 350.480 7.388,350.363 7.479,350.220 7.479 C 350.077 7.479,349.645 7.748,349.260 8.077 C 348.875 8.406,348.491 8.679,348.408 8.683 C 348.324 8.688,347.927 9.055,347.525 9.500 C 347.123 9.944,346.697 10.308,346.578 10.308 C 346.459 10.308,345.535 11.104,344.524 12.077 C 343.513 13.050,341.531 14.919,340.119 16.231 C 337.817 18.371,335.119 21.348,335.119 21.747 C 335.119 21.830,334.991 22.042,334.834 22.218 C 334.419 22.683,332.491 25.869,332.491 26.089 C 332.491 26.192,332.423 26.276,332.340 26.277 C 332.256 26.277,332.015 26.709,331.804 27.237 C 331.592 27.764,331.301 28.335,331.156 28.505 C 330.707 29.031,329.055 32.395,329.055 32.782 C 329.055 32.983,328.964 33.148,328.853 33.148 C 328.742 33.148,328.651 33.245,328.651 33.363 C 328.651 33.481,328.434 34.049,328.169 34.626 C 326.935 37.315,326.668 37.933,326.539 38.403 C 326.399 38.910,326.154 39.512,325.552 40.829 C 325.149 41.709,324.699 42.964,324.176 44.669 C 323.954 45.392,323.650 46.256,323.500 46.589 C 323.350 46.923,323.164 47.538,323.086 47.956 C 323.009 48.374,322.871 48.762,322.780 48.818 C 322.689 48.874,322.503 49.419,322.367 50.029 C 322.230 50.638,322.059 51.137,321.986 51.137 C 321.913 51.137,321.735 51.729,321.591 52.453 C 321.447 53.176,321.255 53.815,321.163 53.871 C 321.071 53.928,320.841 54.678,320.651 55.537 C 320.461 56.396,320.243 57.145,320.166 57.201 C 320.088 57.256,319.913 57.755,319.775 58.310 C 319.638 58.864,319.451 59.410,319.360 59.522 C 319.269 59.635,319.084 60.273,318.949 60.940 C 318.814 61.607,318.625 62.250,318.529 62.369 C 318.433 62.487,318.250 63.078,318.123 63.682 C 317.995 64.286,317.821 64.871,317.735 64.982 C 317.650 65.093,317.515 65.594,317.435 66.094 C 317.355 66.594,317.170 67.276,317.023 67.610 C 316.876 67.943,316.607 68.896,316.425 69.727 C 316.243 70.558,316.019 71.331,315.928 71.445 C 315.836 71.559,315.695 71.971,315.614 72.360 C 315.533 72.749,315.347 73.295,315.201 73.573 C 315.056 73.850,314.641 74.715,314.280 75.493 C 313.161 77.900,310.630 80.469,308.792 81.061 C 308.320 81.213,307.884 81.406,307.824 81.491 C 307.765 81.575,307.037 81.748,306.207 81.874 C 305.378 82.001,304.551 82.180,304.369 82.272 C 304.187 82.365,301.413 82.546,298.204 82.675 C 294.995 82.804,292.279 82.979,292.168 83.065 C 292.057 83.150,291.011 83.279,289.843 83.351 C 286.585 83.553,283.412 84.205,282.466 84.868 C 282.355 84.945,281.906 85.131,281.469 85.280 C 281.032 85.429,280.577 85.635,280.458 85.738 C 280.340 85.841,279.970 86.101,279.636 86.315 C 278.495 87.048,278.286 87.218,277.043 88.417 C 276.358 89.078,275.670 89.851,275.513 90.135 C 274.683 91.643,274.482 92.082,274.482 92.396 C 274.482 92.585,274.368 92.778,274.229 92.825 C 274.050 92.884,273.977 93.489,273.977 94.913 C 273.977 96.926,274.106 97.447,275.023 99.141 C 275.204 99.474,275.476 99.987,275.628 100.281 C 276.158 101.304,278.971 103.508,280.383 104.006 C 280.842 104.168,281.317 104.380,281.438 104.477 C 281.559 104.575,282.203 104.770,282.870 104.912 C 283.537 105.054,284.174 105.234,284.285 105.313 C 284.396 105.391,285.260 105.567,286.205 105.705 C 287.150 105.843,288.105 106.030,288.327 106.121 C 288.550 106.212,289.368 106.396,290.147 106.530 C 290.925 106.664,291.652 106.841,291.764 106.923 C 291.875 107.005,292.443 107.193,293.027 107.339 C 293.610 107.486,294.088 107.694,294.088 107.803 C 294.088 107.912,294.144 107.944,294.213 107.875 C 294.375 107.713,295.414 108.422,296.553 109.472 C 297.792 110.614,298.542 111.966,298.680 113.308 C 298.743 113.916,298.872 114.461,298.968 114.520 C 299.209 114.669,299.185 116.169,298.939 116.321 C 298.828 116.390,298.737 116.755,298.737 117.132 C 298.737 118.030,298.372 119.802,298.031 120.566 C 297.882 120.899,297.695 121.536,297.615 121.981 C 297.536 122.425,297.400 122.880,297.314 122.991 C 297.227 123.103,297.003 123.785,296.817 124.507 C 296.630 125.230,296.405 125.912,296.317 126.023 C 296.228 126.134,296.041 126.908,295.900 127.741 C 295.759 128.575,295.566 129.344,295.472 129.449 C 295.228 129.723,295.256 134.360,295.503 134.512 C 295.614 134.581,295.705 134.837,295.706 135.080 C 295.708 136.403,297.145 138.332,299.138 139.685 L 300.450 140.576 303.100 140.576 C 304.661 140.576,305.949 140.482,306.235 140.346 C 308.516 139.266,309.591 138.663,310.412 138.005 C 310.938 137.582,311.506 137.183,311.673 137.118 C 312.032 136.978,313.968 134.536,314.062 134.104 C 314.098 133.940,314.197 133.805,314.283 133.805 C 314.368 133.805,314.558 133.441,314.704 132.996 C 314.851 132.552,315.036 132.188,315.115 132.188 C 315.194 132.188,315.375 131.756,315.518 131.228 C 315.661 130.700,315.843 130.177,315.922 130.066 C 316.001 129.955,316.181 129.227,316.321 128.449 C 316.462 127.671,316.642 126.943,316.721 126.832 C 316.800 126.721,317.027 125.675,317.225 124.507 C 317.422 123.340,317.648 122.294,317.726 122.183 C 317.803 122.072,317.986 121.344,318.131 120.566 C 318.276 119.788,318.457 119.060,318.533 118.949 C 318.609 118.838,318.791 118.247,318.937 117.635 C 319.083 117.024,319.263 116.433,319.337 116.321 C 319.411 116.210,319.588 115.755,319.731 115.311 C 320.058 114.298,320.819 112.705,321.021 112.616 C 321.104 112.579,321.172 112.466,321.172 112.366 C 321.172 112.096,322.646 109.955,322.832 109.955 C 322.920 109.955,322.991 109.836,322.991 109.691 C 322.991 109.369,324.234 108.135,324.557 108.135 C 324.686 108.135,324.868 107.998,324.962 107.829 C 325.243 107.326,328.243 105.932,329.553 105.695 C 330.224 105.573,330.955 105.392,331.177 105.291 C 331.628 105.088,336.643 104.704,338.897 104.701 C 339.696 104.700,340.406 104.608,340.475 104.497 C 340.544 104.386,341.048 104.295,341.597 104.295 C 343.059 104.295,348.695 103.703,349.166 103.500 C 349.389 103.404,350.116 103.220,350.783 103.089 C 351.821 102.887,353.587 102.199,353.916 101.869 C 353.972 101.814,354.275 101.635,354.590 101.472 C 357.977 99.725,357.115 95.378,353.007 93.487 C 350.605 92.382,350.166 92.205,349.469 92.063 C 349.080 91.984,348.648 91.827,348.509 91.715 C 348.370 91.603,348.257 91.580,348.257 91.662 C 348.257 91.745,348.143 91.725,348.004 91.616 C 347.865 91.508,347.160 91.302,346.438 91.157 C 345.715 91.013,345.033 90.829,344.922 90.749 C 344.811 90.669,344.083 90.489,343.305 90.349 C 342.527 90.208,341.799 90.031,341.688 89.956 C 341.577 89.880,341.009 89.702,340.425 89.560 C 339.492 89.332,338.528 88.899,336.733 87.902 C 336.225 87.620,334.512 85.996,334.512 85.797 C 334.512 85.739,334.291 85.352,334.021 84.938 C 332.948 83.290,332.857 75.806,333.895 74.484 C 333.983 74.372,334.175 73.666,334.321 72.916 C 334.467 72.165,334.644 71.551,334.715 71.551 C 334.785 71.551,334.962 70.937,335.108 70.187 C 335.254 69.437,335.439 68.732,335.519 68.621 C 335.599 68.509,335.783 67.827,335.927 67.105 C 336.072 66.382,336.257 65.700,336.338 65.589 C 336.419 65.478,336.647 64.613,336.844 63.669 C 337.041 62.724,337.269 61.860,337.350 61.748 C 337.431 61.637,337.613 60.864,337.755 60.030 C 337.897 59.197,338.079 58.423,338.160 58.312 C 338.240 58.201,338.418 57.428,338.555 56.594 C 338.691 55.760,338.872 54.987,338.957 54.876 C 339.041 54.765,339.221 53.901,339.356 52.956 C 339.491 52.011,339.674 51.147,339.764 51.036 C 339.853 50.925,340.037 50.293,340.172 49.633 C 340.308 48.973,340.492 48.291,340.581 48.117 C 340.671 47.944,340.901 47.165,341.093 46.387 C 341.285 45.609,341.508 44.881,341.589 44.770 C 341.670 44.659,341.851 44.204,341.991 43.759 C 342.131 43.315,342.308 42.860,342.385 42.749 C 342.462 42.638,342.648 42.137,342.799 41.637 C 342.951 41.137,343.137 40.637,343.214 40.526 C 343.290 40.414,343.465 39.960,343.602 39.515 C 344.012 38.180,345.530 34.837,346.943 32.155 C 347.359 31.365,348.491 29.766,349.116 29.086 C 349.310 28.875,349.469 28.631,349.469 28.545 C 349.469 28.292,352.387 25.467,352.648 25.467 C 352.778 25.467,352.966 25.324,353.063 25.149 C 353.234 24.844,353.637 24.568,354.725 24.012 C 355.003 23.870,355.321 23.654,355.432 23.530 C 355.543 23.407,355.953 23.191,356.342 23.049 C 356.731 22.908,357.333 22.668,357.680 22.516 C 359.707 21.627,364.961 21.651,366.390 22.556 C 366.636 22.712,366.943 22.840,367.071 22.840 C 367.415 22.840,368.942 23.819,370.271 24.892 C 371.253 25.685,372.116 26.606,374.834 29.763 C 375.002 29.957,375.139 30.172,375.139 30.240 C 375.139 30.308,375.489 30.785,375.918 31.301 C 376.346 31.817,376.815 32.464,376.960 32.740 C 377.105 33.015,377.573 33.683,378.001 34.223 C 378.428 34.763,378.777 35.294,378.777 35.403 C 378.777 35.512,379.005 35.899,379.283 36.264 C 379.828 36.978,380.558 38.221,381.192 39.515 C 381.606 40.360,382.242 41.464,382.415 41.637 C 382.471 41.693,382.668 42.011,382.854 42.345 C 383.490 43.489,385.731 45.812,386.458 46.081 C 386.847 46.225,387.230 46.444,387.309 46.567 C 387.642 47.085,391.132 46.841,392.065 46.234 C 394.184 44.857,394.766 41.915,393.553 38.706 C 393.213 37.805,391.177 33.865,390.753 33.286 C 390.503 32.945,390.298 32.587,390.298 32.490 C 390.298 32.394,389.980 31.898,389.591 31.389 C 389.202 30.879,388.883 30.378,388.883 30.276 C 388.883 30.173,388.656 29.791,388.378 29.427 C 388.100 29.062,387.873 28.659,387.873 28.531 C 387.873 28.402,387.783 28.297,387.673 28.297 C 387.564 28.297,387.331 28.002,387.157 27.640 C 386.689 26.670,386.232 25.888,385.493 24.794 C 385.130 24.258,384.695 23.530,384.526 23.177 C 384.237 22.573,383.874 21.907,382.526 19.505 C 382.214 18.949,381.834 18.351,381.682 18.175 C 381.529 18.000,381.405 17.772,381.405 17.670 C 381.405 17.567,380.995 16.962,380.495 16.325 C 379.995 15.688,379.586 15.115,379.586 15.051 C 379.586 14.888,376.432 11.723,376.270 11.723 C 376.197 11.723,375.542 11.218,374.814 10.600 C 374.086 9.983,373.270 9.394,373.001 9.292 C 372.732 9.189,372.511 9.027,372.511 8.931 C 372.511 8.835,372.148 8.636,371.703 8.489 C 371.258 8.342,370.894 8.146,370.894 8.053 C 370.894 7.959,370.806 7.883,370.698 7.883 C 370.590 7.883,370.005 7.655,369.397 7.377 C 368.790 7.100,368.187 6.872,368.058 6.872 C 367.928 6.872,367.536 6.743,367.186 6.584 C 366.331 6.198,364.812 5.903,362.823 5.737 C 361.919 5.662,361.132 5.523,361.073 5.428 C 360.934 5.202,356.196 5.202,356.057 5.428 M39.531 35.345 C 39.471 35.442,39.162 35.573,38.844 35.637 C 37.546 35.897,35.176 39.298,33.960 42.648 C 33.698 43.369,32.226 46.545,31.899 47.094 C 31.800 47.261,31.611 47.648,31.479 47.954 C 31.348 48.259,31.184 48.509,31.115 48.509 C 31.046 48.509,30.869 48.873,30.723 49.318 C 30.576 49.763,30.379 50.126,30.286 50.126 C 30.193 50.126,30.116 50.222,30.116 50.338 C 30.116 50.578,28.666 53.609,28.477 53.765 C 28.409 53.820,28.232 54.207,28.083 54.624 C 27.934 55.040,27.749 55.382,27.672 55.382 C 27.595 55.382,27.470 55.628,27.395 55.930 C 27.319 56.232,27.096 56.846,26.899 57.295 C 26.703 57.743,26.426 58.428,26.284 58.818 C 26.142 59.207,25.901 59.812,25.747 60.162 C 25.593 60.512,25.467 60.866,25.467 60.948 C 25.467 61.096,24.884 62.430,24.336 63.533 C 24.180 63.848,24.053 64.190,24.053 64.293 C 24.053 64.397,23.858 64.912,23.621 65.439 C 22.716 67.446,22.289 68.442,22.040 69.126 C 21.899 69.515,21.616 70.197,21.412 70.642 C 21.208 71.086,20.848 71.905,20.611 72.461 C 20.374 73.017,20.062 73.699,19.917 73.977 C 19.771 74.255,19.589 74.778,19.512 75.139 C 19.435 75.500,19.308 75.796,19.230 75.796 C 19.152 75.796,18.966 76.228,18.816 76.756 C 18.667 77.284,18.437 77.898,18.307 78.120 C 18.176 78.343,17.940 78.934,17.783 79.434 C 17.625 79.934,17.381 80.571,17.239 80.849 C 17.097 81.127,16.924 81.650,16.856 82.011 C 16.787 82.372,16.660 82.668,16.574 82.668 C 16.488 82.668,16.355 83.009,16.278 83.426 C 16.202 83.843,16.026 84.366,15.887 84.588 C 15.748 84.811,15.513 85.447,15.365 86.003 C 15.217 86.559,15.012 87.123,14.908 87.257 C 14.805 87.392,14.779 87.596,14.851 87.712 C 14.922 87.828,14.895 87.923,14.789 87.923 C 14.684 87.923,14.535 88.264,14.457 88.681 C 14.380 89.098,14.196 89.712,14.048 90.045 C 13.899 90.379,13.660 91.016,13.517 91.460 C 13.373 91.905,13.200 92.360,13.132 92.471 C 13.064 92.582,12.882 93.082,12.728 93.583 C 12.574 94.083,12.394 94.538,12.329 94.593 C 12.265 94.649,12.084 95.104,11.927 95.604 C 11.771 96.104,11.534 96.695,11.400 96.918 C 11.266 97.140,11.093 97.640,11.016 98.029 C 10.938 98.418,10.755 98.927,10.608 99.159 C 10.461 99.392,10.237 99.983,10.111 100.473 C 9.984 100.963,9.757 101.637,9.606 101.971 C 9.455 102.304,9.268 102.918,9.191 103.335 C 9.114 103.752,8.980 104.093,8.893 104.093 C 8.807 104.093,8.674 104.434,8.598 104.851 C 8.522 105.268,8.345 105.791,8.206 106.013 C 8.067 106.235,7.832 106.872,7.685 107.428 C 7.537 107.984,7.351 108.530,7.271 108.641 C 7.192 108.752,7.064 109.194,6.986 109.622 C 6.909 110.051,6.746 110.642,6.624 110.936 C 6.502 111.230,6.421 111.548,6.442 111.643 C 6.464 111.738,6.397 111.920,6.293 112.048 C 6.189 112.175,5.988 113.007,5.846 113.896 C 5.705 114.785,5.514 115.599,5.422 115.705 C 5.196 115.966,5.209 120.988,5.438 121.428 C 5.538 121.621,5.737 122.188,5.880 122.688 C 6.022 123.188,6.304 123.839,6.506 124.134 C 6.707 124.429,6.872 124.748,6.873 124.842 C 6.874 125.156,9.268 126.953,9.943 127.146 C 12.949 128.008,16.259 126.956,19.154 124.218 C 21.384 122.110,21.881 121.403,23.787 117.635 C 24.433 116.357,25.030 115.280,25.114 115.243 C 25.197 115.206,25.265 115.077,25.265 114.955 C 25.265 114.736,28.301 108.532,28.503 108.338 C 28.561 108.282,28.720 108.009,28.856 107.731 C 28.992 107.453,29.373 106.771,29.704 106.215 C 30.034 105.659,30.495 104.841,30.728 104.396 C 31.427 103.062,31.803 102.424,32.492 101.405 C 32.853 100.871,33.148 100.379,33.148 100.311 C 33.148 100.244,33.497 99.725,33.924 99.159 C 34.350 98.593,34.818 97.903,34.964 97.625 C 35.109 97.347,35.806 96.418,36.513 95.560 C 37.219 94.703,37.797 93.941,37.797 93.868 C 37.797 93.713,40.651 90.508,42.675 88.391 C 43.438 87.592,44.063 86.861,44.063 86.767 C 44.063 86.508,46.163 84.487,46.432 84.487 C 46.562 84.487,46.786 84.320,46.931 84.116 C 47.365 83.508,49.534 81.987,50.834 81.379 C 51.501 81.068,52.204 80.730,52.397 80.629 C 55.124 79.198,59.461 81.969,59.787 85.350 C 59.839 85.881,59.960 86.364,60.056 86.423 C 60.301 86.575,60.278 88.882,60.030 89.035 C 59.919 89.104,59.828 89.524,59.828 89.968 C 59.828 91.013,59.455 93.567,59.227 94.088 C 59.129 94.310,58.940 95.129,58.806 95.907 C 58.672 96.685,58.494 97.413,58.410 97.524 C 58.326 97.635,58.192 98.135,58.112 98.636 C 58.032 99.136,57.844 99.818,57.694 100.152 C 57.544 100.485,57.278 101.388,57.103 102.159 C 56.928 102.929,56.709 103.657,56.615 103.776 C 56.521 103.895,56.334 104.356,56.199 104.800 C 56.064 105.245,55.832 105.882,55.684 106.215 C 55.536 106.549,55.352 107.164,55.274 107.582 C 55.197 108.000,55.059 108.388,54.968 108.444 C 54.877 108.501,54.695 109.068,54.565 109.705 C 54.434 110.343,54.256 110.955,54.168 111.066 C 53.982 111.303,53.360 114.822,53.360 115.638 C 53.360 115.945,53.269 116.253,53.158 116.321 C 52.910 116.475,52.884 121.003,53.130 121.155 C 53.226 121.214,53.362 121.685,53.433 122.203 C 53.649 123.780,55.890 127.135,56.727 127.135 C 56.865 127.135,57.051 127.252,57.140 127.396 C 58.008 128.796,63.134 129.332,65.226 128.241 C 65.537 128.079,65.907 127.945,66.050 127.945 C 66.192 127.944,66.361 127.807,66.425 127.640 C 66.489 127.473,66.671 127.337,66.830 127.337 C 67.411 127.337,72.562 121.989,72.562 121.386 C 72.562 121.320,72.971 120.745,73.471 120.107 C 73.972 119.470,74.381 118.874,74.381 118.782 C 74.381 118.690,74.790 118.083,75.291 117.433 C 75.791 116.783,76.200 116.195,76.200 116.126 C 76.200 116.057,76.290 115.891,76.401 115.757 C 77.602 114.294,78.423 113.178,78.423 113.007 C 78.423 112.892,78.605 112.701,78.828 112.582 C 79.050 112.463,79.232 112.282,79.232 112.180 C 79.232 112.017,80.470 110.234,81.624 108.737 C 82.437 107.681,84.689 104.278,84.689 104.105 C 84.689 104.006,84.757 103.894,84.841 103.857 C 85.028 103.774,86.306 101.955,86.306 101.772 C 86.306 101.699,86.602 101.214,86.963 100.693 C 87.324 100.173,87.733 99.533,87.872 99.271 C 88.010 99.009,88.488 98.360,88.933 97.828 C 89.378 97.297,89.742 96.808,89.742 96.742 C 89.742 96.257,93.836 92.782,94.424 92.768 C 94.573 92.764,94.871 92.628,95.087 92.465 C 96.651 91.281,99.720 92.545,100.964 94.885 C 101.778 96.415,101.859 103.358,101.076 104.396 C 100.992 104.507,100.807 105.280,100.666 106.114 C 100.524 106.948,100.341 107.721,100.259 107.832 C 100.178 107.943,99.994 108.626,99.851 109.348 C 99.708 110.071,99.475 110.935,99.334 111.268 C 99.192 111.602,98.969 112.375,98.838 112.986 C 98.707 113.598,98.481 114.371,98.336 114.704 C 98.190 115.038,98.006 115.720,97.926 116.220 C 97.847 116.721,97.705 117.225,97.611 117.342 C 96.525 118.694,97.204 125.552,98.477 126.091 C 98.564 126.128,98.636 126.289,98.636 126.449 C 98.636 126.610,98.840 126.832,99.090 126.943 C 99.341 127.054,99.854 127.370,100.232 127.645 C 100.610 127.920,101.082 128.146,101.281 128.146 C 101.481 128.146,101.700 128.236,101.769 128.348 C 101.924 128.600,105.587 128.616,106.066 128.367 C 106.259 128.267,106.827 128.068,107.327 127.924 C 107.827 127.781,108.716 127.363,109.302 126.995 C 109.887 126.627,110.437 126.326,110.522 126.326 C 110.607 126.326,110.992 126.057,111.377 125.728 C 111.762 125.399,112.133 125.126,112.201 125.122 C 112.376 125.110,115.210 122.338,115.210 122.179 C 115.210 122.107,115.514 121.670,115.886 121.206 C 116.258 120.743,116.856 119.727,117.214 118.949 C 117.572 118.171,117.944 117.385,118.041 117.202 C 118.829 115.719,119.047 110.824,118.523 106.357 C 118.033 102.176,118.326 95.653,119.047 94.694 C 119.131 94.583,119.310 93.992,119.446 93.380 C 119.581 92.769,119.813 91.996,119.961 91.662 C 120.108 91.329,120.292 90.715,120.370 90.298 C 120.447 89.881,120.581 89.540,120.667 89.540 C 120.753 89.540,120.887 89.199,120.964 88.782 C 121.042 88.365,121.226 87.751,121.375 87.418 C 121.524 87.084,121.795 86.266,121.976 85.599 C 122.158 84.932,122.428 84.113,122.577 83.780 C 122.726 83.446,122.913 82.855,122.993 82.466 C 123.074 82.077,123.204 81.668,123.284 81.556 C 123.364 81.445,123.550 80.808,123.699 80.141 C 123.847 79.474,124.038 78.836,124.123 78.723 C 124.208 78.610,124.380 77.882,124.507 77.106 C 124.633 76.330,124.844 75.476,124.975 75.210 C 125.298 74.555,125.311 65.672,124.990 65.266 C 124.866 65.110,124.700 64.709,124.620 64.376 C 124.387 63.404,123.405 61.529,122.858 61.012 C 122.582 60.750,122.296 60.375,122.224 60.179 C 122.151 59.983,121.863 59.735,121.582 59.628 C 121.301 59.521,121.071 59.348,121.071 59.244 C 121.071 59.022,118.655 57.807,118.215 57.807 C 118.052 57.807,117.804 57.693,117.665 57.554 C 117.334 57.223,111.765 57.198,111.350 57.526 C 111.194 57.649,110.771 57.806,110.409 57.875 C 110.048 57.943,109.348 58.183,108.854 58.408 C 108.360 58.633,107.897 58.818,107.825 58.818 C 107.478 58.818,103.349 60.988,101.813 61.977 C 101.095 62.440,100.743 62.648,98.737 63.795 C 97.322 64.604,95.130 65.690,94.909 65.691 C 94.791 65.692,94.421 65.837,94.088 66.014 C 92.703 66.749,87.923 66.156,87.923 65.249 C 87.923 65.158,87.805 65.083,87.661 65.083 C 87.333 65.083,85.902 63.637,85.902 63.306 C 85.902 63.172,85.821 63.062,85.721 63.062 C 85.550 63.062,83.881 59.884,83.881 59.559 C 83.881 59.145,82.296 56.228,81.809 55.745 C 81.503 55.441,81.253 55.102,81.253 54.991 C 81.253 54.880,81.049 54.682,80.798 54.551 C 80.548 54.419,80.271 54.189,80.182 54.038 C 80.093 53.888,79.925 53.765,79.809 53.765 C 79.693 53.765,79.356 53.594,79.061 53.386 C 77.645 52.386,72.634 52.305,71.046 53.256 C 70.824 53.390,70.255 53.618,69.783 53.765 C 69.310 53.911,68.924 54.093,68.924 54.169 C 68.924 54.244,68.560 54.426,68.115 54.573 C 67.671 54.720,67.307 54.902,67.307 54.977 C 67.307 55.053,66.943 55.235,66.498 55.382 C 66.054 55.528,65.690 55.727,65.690 55.823 C 65.690 55.919,65.456 56.087,65.171 56.195 C 64.885 56.304,64.354 56.620,63.989 56.898 C 63.625 57.175,63.267 57.403,63.193 57.403 C 63.119 57.403,62.605 57.721,62.052 58.110 C 61.498 58.499,60.993 58.818,60.928 58.818 C 60.864 58.818,60.522 59.036,60.168 59.302 C 55.519 62.806,49.860 62.177,48.516 58.007 C 48.355 57.508,48.128 57.035,48.013 56.955 C 47.876 56.862,47.766 54.156,47.701 49.255 C 47.629 43.894,47.531 41.616,47.362 41.413 C 47.231 41.255,47.016 40.696,46.883 40.169 C 46.751 39.643,46.572 39.212,46.486 39.212 C 46.400 39.212,46.276 38.995,46.209 38.731 C 46.058 38.129,44.144 36.172,43.346 35.803 C 43.017 35.651,42.591 35.446,42.398 35.348 C 41.945 35.117,39.673 35.115,39.531 35.345 M147.766 135.657 C 146.976 135.884,144.571 138.206,144.137 139.161 C 143.986 139.495,143.745 139.995,143.603 140.273 C 143.460 140.551,143.279 141.211,143.200 141.741 C 143.121 142.270,142.975 142.753,142.877 142.814 C 142.647 142.956,142.642 148.619,142.872 148.873 C 142.967 148.979,143.154 150.108,143.286 151.382 C 143.419 152.656,143.599 153.793,143.685 153.908 C 143.771 154.024,143.957 154.982,144.099 156.038 C 144.242 157.094,144.426 158.050,144.510 158.161 C 144.593 158.272,144.774 158.954,144.912 159.677 C 145.049 160.399,145.233 161.081,145.321 161.193 C 145.408 161.304,145.631 161.940,145.816 162.607 C 146.187 163.946,146.254 164.103,147.740 167.155 C 148.941 169.622,149.622 170.843,150.298 171.740 C 150.565 172.094,150.783 172.462,150.783 172.559 C 150.783 172.655,151.238 173.298,151.794 173.988 C 152.350 174.678,152.804 175.297,152.804 175.364 C 152.804 175.619,163.523 186.507,165.154 187.909 C 167.637 190.043,172.122 192.715,174.634 193.558 C 175.134 193.725,175.843 193.999,176.210 194.166 C 176.577 194.334,177.191 194.521,177.575 194.584 C 177.958 194.646,178.272 194.763,178.272 194.845 C 178.272 194.926,178.840 195.110,179.535 195.253 C 180.230 195.396,180.892 195.585,181.006 195.672 C 181.121 195.760,182.030 195.947,183.028 196.088 C 184.025 196.229,184.886 196.399,184.942 196.466 C 185.275 196.868,194.858 196.825,195.856 196.417 C 196.023 196.349,196.796 196.183,197.575 196.048 C 198.353 195.913,199.080 195.736,199.192 195.654 C 199.303 195.572,200.008 195.392,200.758 195.254 C 201.508 195.115,202.122 194.940,202.122 194.863 C 202.122 194.787,202.678 194.610,203.358 194.469 C 204.038 194.329,204.743 194.135,204.925 194.038 C 205.354 193.809,208.248 193.060,210.308 192.644 C 211.198 192.465,212.016 192.262,212.127 192.194 C 212.239 192.126,212.966 191.960,213.744 191.826 C 214.522 191.692,215.341 191.503,215.563 191.406 C 215.786 191.308,216.513 191.123,217.180 190.994 C 217.847 190.865,218.485 190.685,218.598 190.594 C 218.711 190.503,219.256 190.318,219.811 190.183 C 220.365 190.047,220.911 189.866,221.023 189.779 C 221.136 189.692,221.682 189.510,222.236 189.375 C 222.790 189.240,223.471 189.021,223.749 188.889 C 224.027 188.756,224.755 188.419,225.366 188.138 C 226.449 187.642,227.975 186.880,229.409 186.120 C 232.205 184.638,238.909 178.733,238.909 177.752 C 238.909 177.617,239.045 177.454,239.212 177.390 C 239.378 177.326,239.515 177.174,239.515 177.051 C 239.515 176.929,239.769 176.449,240.080 175.984 C 240.391 175.519,240.869 174.684,241.141 174.128 C 241.414 173.573,241.803 172.867,242.005 172.561 C 242.208 172.255,242.769 171.254,243.252 170.338 C 243.735 169.421,244.362 168.262,244.645 167.761 C 245.302 166.601,246.168 164.984,247.026 163.315 C 247.397 162.592,247.746 161.956,247.802 161.900 C 247.992 161.710,253.003 151.493,253.254 150.783 C 253.510 150.060,253.837 149.271,254.365 148.105 C 254.528 147.744,254.811 146.857,254.994 146.134 C 255.176 145.412,255.427 144.606,255.551 144.343 C 255.917 143.570,255.827 140.083,255.422 139.363 C 255.234 139.030,255.080 138.663,255.080 138.549 C 255.075 137.823,252.816 136.230,251.790 136.230 C 251.531 136.230,251.210 136.121,251.076 135.988 C 250.888 135.799,250.780 135.799,250.591 135.988 C 250.458 136.121,250.138 136.230,249.880 136.230 C 249.076 136.230,247.469 137.222,246.499 138.315 C 245.243 139.732,245.114 139.897,244.809 140.478 C 244.664 140.754,244.282 141.435,243.960 141.991 C 243.639 142.547,243.191 143.365,242.964 143.810 C 242.317 145.079,241.892 145.770,241.078 146.878 C 240.663 147.444,240.323 147.963,240.323 148.031 C 240.323 148.173,240.314 148.185,237.993 150.823 C 236.165 152.901,231.060 157.858,230.748 157.858 C 230.646 157.858,230.372 158.048,230.137 158.280 C 229.573 158.841,226.857 160.889,226.678 160.889 C 226.600 160.889,226.160 161.139,225.699 161.445 C 224.987 161.918,221.735 163.569,218.797 164.950 C 218.353 165.159,217.606 165.424,217.138 165.540 C 216.671 165.656,216.239 165.831,216.179 165.928 C 216.119 166.025,215.592 166.216,215.008 166.353 C 214.424 166.490,213.855 166.669,213.744 166.751 C 213.633 166.833,212.906 167.016,212.127 167.158 C 211.349 167.300,210.667 167.479,210.611 167.555 C 210.490 167.722,207.378 168.166,206.333 168.166 C 205.926 168.166,205.558 168.269,205.516 168.395 C 205.408 168.717,196.083 168.750,195.422 168.431 C 195.161 168.305,193.992 168.094,192.825 167.964 C 191.657 167.833,190.611 167.655,190.500 167.568 C 190.389 167.482,189.661 167.296,188.883 167.155 C 188.105 167.015,187.377 166.833,187.266 166.751 C 187.155 166.669,186.700 166.537,186.256 166.457 C 185.811 166.378,185.174 166.192,184.841 166.044 C 184.507 165.896,183.871 165.669,183.426 165.538 C 182.981 165.408,181.890 164.958,181.001 164.539 C 180.111 164.119,179.156 163.669,178.878 163.538 C 178.006 163.129,175.983 162.006,175.092 161.436 C 174.622 161.135,174.152 160.889,174.048 160.889 C 173.944 160.889,173.829 160.821,173.791 160.738 C 173.712 160.559,171.893 159.272,171.720 159.272 C 171.655 159.272,171.443 159.135,171.248 158.968 C 168.130 156.282,167.047 155.271,165.057 153.183 C 163.765 151.827,162.708 150.606,162.708 150.469 C 162.708 150.332,162.572 150.168,162.405 150.104 C 162.239 150.040,162.102 149.884,162.102 149.758 C 162.102 149.631,161.875 149.258,161.597 148.927 C 161.319 148.597,161.091 148.197,161.091 148.039 C 161.091 147.881,161.008 147.751,160.906 147.751 C 160.705 147.751,160.604 147.574,158.709 143.869 C 156.584 139.712,156.498 139.573,155.140 138.107 C 152.925 135.714,150.441 134.889,147.766 135.657 " stroke="none" fill="#fff" fill-rule="evenodd"></path><path id="path1" d="M354.876 0.134 C 354.348 0.183,353.916 0.298,353.916 0.387 C 353.916 0.477,353.406 0.611,352.782 0.684 C 352.158 0.757,351.155 1.043,350.552 1.318 C 349.950 1.594,349.364 1.819,349.251 1.819 C 349.137 1.819,348.709 2.046,348.300 2.324 C 347.891 2.602,347.441 2.830,347.300 2.830 C 347.159 2.830,347.044 2.924,347.044 3.038 C 347.044 3.153,346.871 3.312,346.660 3.392 C 346.156 3.583,342.659 6.635,341.110 8.236 C 340.438 8.931,339.775 9.500,339.636 9.500 C 339.307 9.500,331.683 17.021,331.683 17.346 C 331.683 17.481,331.273 18.113,330.773 18.751 C 330.273 19.388,329.864 20.023,329.864 20.162 C 329.864 20.301,329.773 20.414,329.661 20.414 C 329.550 20.414,329.459 20.507,329.459 20.620 C 329.459 20.734,329.214 21.211,328.915 21.682 C 328.150 22.882,327.608 23.864,326.490 26.074 C 325.955 27.130,325.463 28.039,325.395 28.095 C 325.327 28.151,325.150 28.537,325.001 28.954 C 324.851 29.371,324.657 29.712,324.568 29.712 C 324.479 29.712,324.423 29.780,324.443 29.864 C 324.463 29.947,324.312 30.379,324.108 30.824 C 323.903 31.268,323.472 32.223,323.149 32.946 C 322.825 33.669,322.391 34.624,322.183 35.068 C 321.975 35.513,321.656 36.329,321.475 36.882 C 321.294 37.435,321.074 37.981,320.985 38.095 C 320.896 38.209,320.759 38.572,320.680 38.902 C 320.601 39.231,320.371 39.868,320.170 40.316 C 319.968 40.765,319.742 41.419,319.668 41.769 C 319.593 42.119,319.355 42.753,319.139 43.176 C 318.923 43.600,318.747 44.103,318.747 44.296 C 318.747 44.488,318.671 44.692,318.579 44.749 C 318.487 44.806,318.290 45.361,318.140 45.983 C 317.991 46.605,317.794 47.160,317.702 47.217 C 317.610 47.274,317.532 47.520,317.530 47.763 C 317.528 48.007,317.265 48.948,316.945 49.854 C 316.625 50.761,316.301 51.875,316.224 52.329 C 316.147 52.784,316.010 53.202,315.920 53.258 C 315.830 53.313,315.644 53.837,315.507 54.421 C 315.370 55.005,315.181 55.580,315.088 55.698 C 314.994 55.817,314.814 56.408,314.687 57.012 C 314.559 57.616,314.381 58.202,314.292 58.315 C 314.202 58.428,314.022 58.973,313.893 59.528 C 313.764 60.082,313.607 60.672,313.544 60.839 C 313.336 61.394,313.295 61.538,312.969 62.860 C 312.791 63.583,312.565 64.356,312.466 64.578 C 312.367 64.800,312.189 65.433,312.070 65.985 C 311.951 66.536,311.781 67.082,311.692 67.197 C 311.604 67.313,311.414 67.976,311.271 68.671 C 311.128 69.366,310.951 69.934,310.878 69.934 C 310.805 69.934,310.642 70.321,310.516 70.793 C 309.650 74.029,306.709 76.613,303.531 76.929 C 302.778 77.004,302.113 77.144,302.054 77.239 C 301.995 77.335,301.247 77.413,300.392 77.412 C 297.628 77.411,290.354 77.859,290.157 78.043 C 290.051 78.141,289.551 78.222,289.045 78.222 C 287.786 78.223,284.533 78.630,284.285 78.819 C 284.174 78.903,283.492 79.084,282.769 79.222 C 282.046 79.360,281.364 79.544,281.253 79.632 C 281.142 79.721,280.528 79.956,279.889 80.156 C 279.250 80.355,278.727 80.593,278.727 80.684 C 278.727 80.775,278.642 80.849,278.538 80.849 C 278.234 80.849,276.280 82.075,275.254 82.909 C 274.734 83.332,274.261 83.679,274.203 83.679 C 274.065 83.679,272.057 85.687,272.057 85.825 C 272.057 85.883,271.712 86.356,271.291 86.876 C 270.871 87.397,270.225 88.459,269.857 89.237 C 269.490 90.015,269.109 90.806,269.011 90.994 C 268.394 92.184,268.383 97.947,268.997 98.711 C 269.098 98.836,269.244 99.237,269.322 99.602 C 269.694 101.343,273.152 106.316,273.989 106.316 C 274.055 106.316,274.625 106.703,275.255 107.175 C 276.405 108.036,277.607 108.681,278.929 109.147 C 279.318 109.284,279.909 109.511,280.243 109.651 C 280.576 109.792,281.213 109.971,281.657 110.050 C 282.102 110.128,282.557 110.263,282.668 110.350 C 282.779 110.436,283.871 110.662,285.093 110.853 C 286.316 111.043,287.590 111.318,287.923 111.462 C 288.257 111.607,288.871 111.786,289.288 111.860 C 289.704 111.934,290.045 112.071,290.045 112.165 C 290.045 112.259,290.263 112.391,290.529 112.458 C 292.515 112.956,294.116 117.516,292.879 119.151 C 292.795 119.262,292.613 119.968,292.474 120.720 C 292.336 121.472,292.151 122.131,292.064 122.185 C 291.977 122.239,291.797 122.761,291.665 123.345 C 291.533 123.928,291.306 124.679,291.160 125.013 C 291.015 125.346,290.831 126.028,290.751 126.529 C 290.671 127.029,290.529 127.534,290.436 127.650 C 289.932 128.278,289.911 136.243,290.412 136.915 C 290.504 137.039,290.705 137.549,290.858 138.050 C 291.157 139.022,292.626 141.486,292.908 141.486 C 293.001 141.486,293.077 141.604,293.077 141.749 C 293.077 142.080,294.324 143.305,294.660 143.305 C 294.797 143.305,294.963 143.445,295.028 143.615 C 295.094 143.786,295.432 144.061,295.780 144.225 C 296.128 144.390,296.685 144.674,297.019 144.857 C 298.207 145.509,298.448 145.600,299.646 145.859 C 302.053 146.378,306.615 146.057,308.338 145.247 C 308.671 145.091,309.490 144.710,310.157 144.402 C 310.824 144.093,311.802 143.538,312.330 143.169 C 312.858 142.799,313.385 142.496,313.501 142.496 C 313.854 142.496,318.140 138.127,318.140 137.767 C 318.140 137.582,318.277 137.378,318.444 137.314 C 318.610 137.250,318.747 137.083,318.747 136.943 C 318.747 136.804,318.936 136.448,319.168 136.153 C 319.400 135.859,319.683 135.278,319.797 134.863 C 319.911 134.448,320.067 134.063,320.143 134.007 C 320.351 133.856,320.957 131.741,321.446 129.459 C 321.685 128.348,321.936 127.347,322.004 127.236 C 322.073 127.125,322.244 126.261,322.385 125.316 C 322.526 124.371,322.709 123.507,322.793 123.396 C 322.876 123.284,323.060 122.534,323.202 121.728 C 323.344 120.922,323.522 120.263,323.598 120.263 C 323.674 120.263,323.851 119.740,323.992 119.101 C 324.134 118.461,324.373 117.711,324.524 117.433 C 324.674 117.155,324.935 116.609,325.104 116.220 C 326.315 113.418,328.798 111.287,331.476 110.750 C 332.090 110.627,332.739 110.450,332.918 110.357 C 333.097 110.264,335.393 110.074,338.021 109.935 C 340.649 109.795,342.799 109.606,342.799 109.515 C 342.799 109.423,343.186 109.348,343.658 109.349 C 344.987 109.350,348.916 108.937,349.368 108.749 C 349.591 108.657,350.545 108.473,351.488 108.340 C 352.432 108.208,353.296 108.042,353.408 107.971 C 353.521 107.901,353.704 107.837,353.815 107.829 C 354.127 107.808,355.811 107.302,356.038 107.161 C 356.150 107.092,356.331 107.021,356.443 107.004 C 356.948 106.926,360.023 105.308,360.912 104.653 C 363.047 103.080,363.759 101.771,363.697 99.535 C 363.525 93.412,360.431 89.949,353.209 87.795 C 352.653 87.629,351.925 87.371,351.592 87.220 C 351.258 87.069,350.622 86.881,350.177 86.802 C 349.732 86.723,349.277 86.589,349.166 86.506 C 349.055 86.422,348.470 86.249,347.866 86.122 C 347.262 85.995,346.671 85.815,346.552 85.723 C 346.434 85.631,345.756 85.445,345.045 85.309 C 344.335 85.173,343.608 84.986,343.429 84.893 C 343.249 84.800,342.577 84.481,341.935 84.184 C 339.394 83.008,338.654 81.790,338.660 78.800 C 338.663 77.728,338.768 76.637,338.895 76.374 C 339.022 76.112,339.279 75.078,339.466 74.078 C 339.653 73.077,339.878 72.168,339.966 72.057 C 340.054 71.945,340.193 71.445,340.274 70.945 C 340.355 70.445,340.535 69.808,340.674 69.530 C 340.812 69.252,341.041 68.388,341.182 67.610 C 341.323 66.832,341.511 66.102,341.600 65.988 C 341.689 65.875,341.875 65.170,342.012 64.422 C 342.150 63.674,342.324 63.062,342.398 63.062 C 342.472 63.062,342.649 62.403,342.791 61.597 C 342.932 60.791,343.113 60.040,343.192 59.929 C 343.270 59.818,343.500 58.681,343.703 57.403 C 343.906 56.124,344.139 54.987,344.221 54.876 C 344.303 54.765,344.482 53.992,344.618 53.158 C 344.755 52.324,344.938 51.551,345.024 51.440 C 345.110 51.329,345.288 50.717,345.419 50.079 C 345.549 49.442,345.731 48.875,345.822 48.818 C 345.913 48.762,346.051 48.374,346.128 47.956 C 346.206 47.538,346.390 46.923,346.538 46.589 C 346.686 46.256,346.918 45.619,347.053 45.174 C 347.188 44.730,347.364 44.275,347.444 44.164 C 347.523 44.053,347.743 43.461,347.932 42.850 C 348.120 42.239,348.419 41.420,348.596 41.031 C 348.773 40.642,349.077 39.960,349.272 39.515 C 350.240 37.306,351.395 35.001,351.822 34.425 C 352.084 34.071,352.299 33.687,352.299 33.571 C 352.299 33.223,356.099 29.375,356.801 29.012 C 357.160 28.827,357.681 28.556,357.959 28.410 C 359.781 27.456,360.052 27.388,362.005 27.388 C 363.153 27.388,364.077 27.482,364.244 27.615 C 364.400 27.741,364.754 27.913,365.030 27.998 C 366.218 28.364,370.894 32.741,370.894 33.488 C 370.894 33.627,371.076 33.838,371.299 33.957 C 371.521 34.076,371.703 34.260,371.703 34.366 C 371.703 34.472,372.112 35.097,372.612 35.754 C 373.113 36.412,373.522 37.004,373.522 37.070 C 373.522 37.136,373.858 37.658,374.269 38.230 C 375.047 39.313,375.442 39.972,376.128 41.334 C 376.567 42.206,377.199 43.293,377.362 43.456 C 377.418 43.512,377.622 43.876,377.816 44.265 C 378.220 45.075,378.489 45.518,379.130 46.424 C 379.381 46.778,379.586 47.129,379.586 47.204 C 379.586 47.278,379.813 47.518,380.091 47.737 C 380.369 47.956,380.596 48.248,380.596 48.388 C 380.596 48.656,381.426 49.520,381.685 49.520 C 381.769 49.520,382.263 49.870,382.783 50.297 C 383.749 51.090,385.263 51.944,385.706 51.947 C 385.842 51.947,386.225 52.101,386.559 52.288 C 387.284 52.694,391.932 52.802,392.743 52.431 C 395.136 51.336,396.179 50.704,397.076 49.808 C 398.109 48.775,399.394 46.626,399.394 45.930 C 399.394 45.726,399.503 45.449,399.637 45.315 C 399.942 45.010,399.960 40.365,399.658 39.980 C 399.545 39.835,399.345 39.262,399.214 38.706 C 398.976 37.695,398.847 37.359,397.973 35.472 C 397.298 34.015,395.504 30.835,395.312 30.756 C 395.222 30.719,395.149 30.574,395.149 30.433 C 395.149 30.292,394.899 29.817,394.593 29.378 C 393.796 28.232,393.572 27.874,393.190 27.135 C 393.004 26.774,392.777 26.478,392.686 26.478 C 392.596 26.478,392.521 26.381,392.521 26.262 C 392.521 26.143,392.249 25.649,391.915 25.164 C 391.582 24.679,391.309 24.230,391.309 24.166 C 391.309 24.101,391.013 23.617,390.650 23.090 C 390.288 22.563,389.833 21.814,389.639 21.425 C 389.092 20.330,387.830 18.102,387.693 17.989 C 387.625 17.933,387.411 17.569,387.217 17.180 C 386.806 16.356,386.576 15.970,385.808 14.823 C 385.498 14.360,385.245 13.924,385.245 13.854 C 385.245 13.784,385.156 13.617,385.048 13.483 C 383.282 11.293,382.562 10.506,380.759 8.785 C 378.329 6.468,375.914 4.701,373.522 3.491 C 373.133 3.294,372.769 3.080,372.713 3.016 C 372.658 2.952,372.112 2.739,371.501 2.542 C 370.889 2.346,370.298 2.113,370.187 2.024 C 370.076 1.936,369.439 1.748,368.772 1.606 C 368.105 1.464,367.466 1.278,367.351 1.192 C 367.237 1.105,366.327 0.929,365.330 0.800 C 364.333 0.671,363.355 0.482,363.158 0.379 C 362.766 0.175,356.426 -0.013,354.876 0.134 M361.073 5.428 C 361.132 5.523,361.919 5.662,362.823 5.737 C 364.812 5.903,366.331 6.198,367.186 6.584 C 367.536 6.743,367.928 6.872,368.058 6.872 C 368.187 6.872,368.790 7.100,369.397 7.377 C 370.005 7.655,370.590 7.883,370.698 7.883 C 370.806 7.883,370.894 7.959,370.894 8.053 C 370.894 8.146,371.258 8.342,371.703 8.489 C 372.148 8.636,372.511 8.835,372.511 8.931 C 372.511 9.027,372.732 9.189,373.001 9.292 C 373.270 9.394,374.086 9.983,374.814 10.600 C 375.542 11.218,376.197 11.723,376.270 11.723 C 376.432 11.723,379.586 14.888,379.586 15.051 C 379.586 15.115,379.995 15.688,380.495 16.325 C 380.995 16.962,381.405 17.567,381.405 17.670 C 381.405 17.772,381.529 18.000,381.682 18.175 C 381.834 18.351,382.214 18.949,382.526 19.505 C 383.874 21.907,384.237 22.573,384.526 23.177 C 384.695 23.530,385.130 24.258,385.493 24.794 C 386.232 25.888,386.689 26.670,387.157 27.640 C 387.331 28.002,387.564 28.297,387.673 28.297 C 387.783 28.297,387.873 28.402,387.873 28.531 C 387.873 28.659,388.100 29.062,388.378 29.427 C 388.656 29.791,388.883 30.173,388.883 30.276 C 388.883 30.378,389.202 30.879,389.591 31.389 C 389.980 31.898,390.298 32.394,390.298 32.490 C 390.298 32.587,390.503 32.945,390.753 33.286 C 391.177 33.865,393.213 37.805,393.553 38.706 C 394.766 41.915,394.184 44.857,392.065 46.234 C 391.132 46.841,387.642 47.085,387.309 46.567 C 387.230 46.444,386.847 46.225,386.458 46.081 C 385.731 45.812,383.490 43.489,382.854 42.345 C 382.668 42.011,382.471 41.693,382.415 41.637 C 382.242 41.464,381.606 40.360,381.192 39.515 C 380.558 38.221,379.828 36.978,379.283 36.264 C 379.005 35.899,378.777 35.512,378.777 35.403 C 378.777 35.294,378.428 34.763,378.001 34.223 C 377.573 33.683,377.105 33.015,376.960 32.740 C 376.815 32.464,376.346 31.817,375.918 31.301 C 375.489 30.785,375.139 30.308,375.139 30.240 C 375.139 30.172,375.002 29.957,374.834 29.763 C 372.116 26.606,371.253 25.685,370.271 24.892 C 368.942 23.819,367.415 22.840,367.071 22.840 C 366.943 22.840,366.636 22.712,366.390 22.556 C 364.961 21.651,359.707 21.627,357.680 22.516 C 357.333 22.668,356.731 22.908,356.342 23.049 C 355.953 23.191,355.543 23.407,355.432 23.530 C 355.321 23.654,355.003 23.870,354.725 24.012 C 353.637 24.568,353.234 24.844,353.063 25.149 C 352.966 25.324,352.778 25.467,352.648 25.467 C 352.387 25.467,349.469 28.292,349.469 28.545 C 349.469 28.631,349.310 28.875,349.116 29.086 C 348.491 29.766,347.359 31.365,346.943 32.155 C 345.530 34.837,344.012 38.180,343.602 39.515 C 343.465 39.960,343.290 40.414,343.214 40.526 C 343.137 40.637,342.951 41.137,342.799 41.637 C 342.648 42.137,342.462 42.638,342.385 42.749 C 342.308 42.860,342.131 43.315,341.991 43.759 C 341.851 44.204,341.670 44.659,341.589 44.770 C 341.508 44.881,341.285 45.609,341.093 46.387 C 340.901 47.165,340.671 47.944,340.581 48.117 C 340.492 48.291,340.308 48.973,340.172 49.633 C 340.037 50.293,339.853 50.925,339.764 51.036 C 339.674 51.147,339.491 52.011,339.356 52.956 C 339.221 53.901,339.041 54.765,338.957 54.876 C 338.872 54.987,338.691 55.760,338.555 56.594 C 338.418 57.428,338.240 58.201,338.160 58.312 C 338.079 58.423,337.897 59.197,337.755 60.030 C 337.613 60.864,337.431 61.637,337.350 61.748 C 337.269 61.860,337.041 62.724,336.844 63.669 C 336.647 64.613,336.419 65.478,336.338 65.589 C 336.257 65.700,336.072 66.382,335.927 67.105 C 335.783 67.827,335.599 68.509,335.519 68.621 C 335.439 68.732,335.254 69.437,335.108 70.187 C 334.962 70.937,334.785 71.551,334.715 71.551 C 334.644 71.551,334.467 72.165,334.321 72.916 C 334.175 73.666,333.983 74.372,333.895 74.484 C 332.857 75.806,332.948 83.290,334.021 84.938 C 334.291 85.352,334.512 85.739,334.512 85.797 C 334.512 85.996,336.225 87.620,336.733 87.902 C 338.528 88.899,339.492 89.332,340.425 89.560 C 341.009 89.702,341.577 89.880,341.688 89.956 C 341.799 90.031,342.527 90.208,343.305 90.349 C 344.083 90.489,344.811 90.669,344.922 90.749 C 345.033 90.829,345.715 91.013,346.438 91.157 C 347.160 91.302,347.865 91.508,348.004 91.616 C 348.143 91.725,348.257 91.745,348.257 91.662 C 348.257 91.580,348.370 91.603,348.509 91.715 C 348.648 91.827,349.080 91.984,349.469 92.063 C 351.574 92.492,354.911 94.349,355.944 95.666 C 357.273 97.360,356.549 100.461,354.590 101.472 C 354.275 101.635,353.972 101.814,353.916 101.869 C 353.587 102.199,351.821 102.887,350.783 103.089 C 350.116 103.220,349.389 103.404,349.166 103.500 C 348.695 103.703,343.059 104.295,341.597 104.295 C 341.048 104.295,340.544 104.386,340.475 104.497 C 340.406 104.608,339.696 104.700,338.897 104.701 C 336.643 104.704,331.628 105.088,331.177 105.291 C 330.955 105.392,330.224 105.573,329.553 105.695 C 328.243 105.932,325.243 107.326,324.962 107.829 C 324.868 107.998,324.686 108.135,324.557 108.135 C 324.234 108.135,322.991 109.369,322.991 109.691 C 322.991 109.836,322.920 109.955,322.832 109.955 C 322.646 109.955,321.172 112.096,321.172 112.366 C 321.172 112.466,321.104 112.579,321.021 112.616 C 320.819 112.705,320.058 114.298,319.731 115.311 C 319.588 115.755,319.411 116.210,319.337 116.321 C 319.263 116.433,319.083 117.024,318.937 117.635 C 318.791 118.247,318.609 118.838,318.533 118.949 C 318.457 119.060,318.276 119.788,318.131 120.566 C 317.986 121.344,317.803 122.072,317.726 122.183 C 317.648 122.294,317.422 123.340,317.225 124.507 C 317.027 125.675,316.800 126.721,316.721 126.832 C 316.642 126.943,316.462 127.671,316.321 128.449 C 316.181 129.227,316.001 129.955,315.922 130.066 C 315.843 130.177,315.661 130.700,315.518 131.228 C 315.375 131.756,315.194 132.188,315.115 132.188 C 315.036 132.188,314.851 132.552,314.704 132.996 C 314.558 133.441,314.368 133.805,314.283 133.805 C 314.197 133.805,314.098 133.940,314.062 134.104 C 313.968 134.536,312.032 136.978,311.673 137.118 C 311.506 137.183,310.938 137.582,310.412 138.005 C 309.591 138.663,308.516 139.266,306.235 140.346 C 305.949 140.482,304.661 140.576,303.100 140.576 L 300.450 140.576 299.138 139.685 C 297.145 138.332,295.708 136.403,295.706 135.080 C 295.705 134.837,295.614 134.581,295.503 134.512 C 295.256 134.360,295.228 129.723,295.472 129.449 C 295.566 129.344,295.759 128.575,295.900 127.741 C 296.041 126.908,296.228 126.134,296.317 126.023 C 296.405 125.912,296.630 125.230,296.817 124.507 C 297.003 123.785,297.227 123.103,297.314 122.991 C 297.400 122.880,297.536 122.425,297.615 121.981 C 297.695 121.536,297.882 120.899,298.031 120.566 C 298.372 119.802,298.737 118.030,298.737 117.132 C 298.737 116.755,298.828 116.390,298.939 116.321 C 299.185 116.169,299.209 114.669,298.968 114.520 C 298.872 114.461,298.743 113.916,298.680 113.308 C 298.542 111.966,297.792 110.614,296.553 109.472 C 295.414 108.422,294.375 107.713,294.213 107.875 C 294.144 107.944,294.088 107.912,294.088 107.803 C 294.088 107.694,293.610 107.486,293.027 107.339 C 292.443 107.193,291.875 107.005,291.764 106.923 C 291.652 106.841,290.925 106.664,290.147 106.530 C 289.368 106.396,288.550 106.212,288.327 106.121 C 288.105 106.030,287.150 105.843,286.205 105.705 C 285.260 105.567,284.396 105.391,284.285 105.313 C 284.174 105.234,283.537 105.054,282.870 104.912 C 282.203 104.770,281.559 104.575,281.438 104.477 C 281.317 104.380,280.842 104.168,280.383 104.006 C 278.971 103.508,276.158 101.304,275.628 100.281 C 275.476 99.987,275.204 99.474,275.023 99.141 C 274.106 97.447,273.977 96.926,273.977 94.913 C 273.977 93.489,274.050 92.884,274.229 92.825 C 274.368 92.778,274.482 92.585,274.482 92.396 C 274.482 92.082,274.683 91.643,275.513 90.135 C 275.670 89.851,276.358 89.078,277.043 88.417 C 278.286 87.218,278.495 87.048,279.636 86.315 C 279.970 86.101,280.340 85.841,280.458 85.738 C 280.577 85.635,281.032 85.429,281.469 85.280 C 281.906 85.131,282.355 84.945,282.466 84.868 C 283.412 84.205,286.585 83.553,289.843 83.351 C 291.011 83.279,292.057 83.150,292.168 83.065 C 292.279 82.979,294.995 82.804,298.204 82.675 C 301.413 82.546,304.187 82.365,304.369 82.272 C 304.551 82.180,305.378 82.001,306.207 81.874 C 307.037 81.748,307.765 81.575,307.824 81.491 C 307.884 81.406,308.320 81.213,308.792 81.061 C 310.630 80.469,313.161 77.900,314.280 75.493 C 314.641 74.715,315.056 73.850,315.201 73.573 C 315.347 73.295,315.533 72.749,315.614 72.360 C 315.695 71.971,315.836 71.559,315.928 71.445 C 316.019 71.331,316.243 70.558,316.425 69.727 C 316.607 68.896,316.876 67.943,317.023 67.610 C 317.170 67.276,317.355 66.594,317.435 66.094 C 317.515 65.594,317.650 65.093,317.735 64.982 C 317.821 64.871,317.995 64.286,318.123 63.682 C 318.250 63.078,318.433 62.487,318.529 62.369 C 318.625 62.250,318.814 61.607,318.949 60.940 C 319.084 60.273,319.269 59.635,319.360 59.522 C 319.451 59.410,319.638 58.864,319.775 58.310 C 319.913 57.755,320.088 57.256,320.166 57.201 C 320.243 57.145,320.461 56.396,320.651 55.537 C 320.841 54.678,321.071 53.928,321.163 53.871 C 321.255 53.815,321.447 53.176,321.591 52.453 C 321.735 51.729,321.913 51.137,321.986 51.137 C 322.059 51.137,322.230 50.638,322.367 50.029 C 322.503 49.419,322.689 48.874,322.780 48.818 C 322.871 48.762,323.009 48.374,323.086 47.956 C 323.164 47.538,323.350 46.923,323.500 46.589 C 323.650 46.256,323.954 45.392,324.176 44.669 C 324.699 42.964,325.149 41.709,325.552 40.829 C 326.154 39.512,326.399 38.910,326.539 38.403 C 326.668 37.933,326.935 37.315,328.169 34.626 C 328.434 34.049,328.651 33.481,328.651 33.363 C 328.651 33.245,328.742 33.148,328.853 33.148 C 328.964 33.148,329.055 32.983,329.055 32.782 C 329.055 32.395,330.707 29.031,331.156 28.505 C 331.301 28.335,331.592 27.764,331.804 27.237 C 332.015 26.709,332.256 26.277,332.340 26.277 C 332.423 26.276,332.491 26.192,332.491 26.089 C 332.491 25.869,334.419 22.683,334.834 22.218 C 334.991 22.042,335.119 21.830,335.119 21.747 C 335.119 21.348,337.817 18.371,340.119 16.231 C 341.531 14.919,343.513 13.050,344.524 12.077 C 345.535 11.104,346.459 10.308,346.578 10.308 C 346.697 10.308,347.123 9.944,347.525 9.500 C 347.927 9.055,348.324 8.688,348.408 8.683 C 348.491 8.679,348.875 8.406,349.260 8.077 C 349.645 7.748,350.077 7.479,350.220 7.479 C 350.363 7.479,350.480 7.388,350.480 7.276 C 350.480 7.165,350.571 7.074,350.682 7.074 C 350.792 7.074,351.461 6.801,352.166 6.468 C 352.919 6.112,353.966 5.808,354.700 5.731 C 355.387 5.659,355.998 5.523,356.057 5.428 C 356.196 5.202,360.934 5.202,361.073 5.428 M39.414 29.237 C 39.025 29.283,38.525 29.404,38.302 29.508 C 38.080 29.611,37.522 29.791,37.062 29.907 C 36.603 30.024,36.114 30.255,35.977 30.421 C 35.839 30.587,35.598 30.723,35.441 30.723 C 35.285 30.723,35.104 30.859,35.040 31.026 C 34.976 31.193,34.815 31.329,34.682 31.329 C 34.376 31.329,33.148 32.583,33.148 32.895 C 33.148 33.023,33.034 33.201,32.895 33.290 C 32.252 33.701,29.932 38.203,28.907 41.031 C 28.510 42.126,25.212 48.711,25.060 48.711 C 24.986 48.711,24.806 49.075,24.659 49.520 C 24.512 49.965,24.334 50.328,24.263 50.328 C 24.192 50.328,24.016 50.670,23.872 51.086 C 23.728 51.503,23.352 52.390,23.038 53.057 C 21.899 55.471,21.452 56.517,21.308 57.106 C 21.227 57.436,20.993 58.023,20.788 58.410 C 20.582 58.798,20.414 59.255,20.414 59.427 C 20.414 59.598,20.298 59.918,20.155 60.137 C 20.012 60.356,19.776 60.899,19.630 61.344 C 19.374 62.124,19.051 62.886,18.191 64.743 C 17.969 65.223,17.787 65.690,17.787 65.782 C 17.787 65.874,17.595 66.368,17.361 66.880 C 16.669 68.392,16.138 69.577,15.765 70.440 C 15.573 70.884,15.277 71.566,15.107 71.956 C 14.937 72.345,14.689 72.981,14.556 73.370 C 14.424 73.759,14.202 74.305,14.065 74.583 C 13.927 74.861,13.691 75.498,13.539 75.998 C 13.387 76.498,13.144 77.087,12.999 77.306 C 12.853 77.525,12.733 77.844,12.732 78.014 C 12.732 78.183,12.605 78.564,12.451 78.859 C 12.298 79.154,12.063 79.745,11.930 80.172 C 11.797 80.600,11.559 81.238,11.401 81.591 C 11.242 81.943,11.057 82.512,10.989 82.854 C 10.920 83.196,10.795 83.477,10.710 83.477 C 10.625 83.477,10.492 83.818,10.415 84.234 C 10.338 84.651,10.151 85.265,10.000 85.599 C 9.849 85.932,9.622 86.614,9.495 87.115 C 9.368 87.615,9.148 88.207,9.004 88.431 C 8.861 88.655,8.677 89.156,8.594 89.543 C 8.511 89.931,8.278 90.615,8.077 91.063 C 7.875 91.512,7.646 92.148,7.566 92.478 C 7.487 92.808,7.352 93.169,7.264 93.281 C 7.111 93.479,6.875 94.087,6.052 96.412 C 5.836 97.024,5.572 97.706,5.466 97.928 C 5.359 98.151,5.170 98.734,5.045 99.224 C 4.920 99.714,4.698 100.305,4.551 100.538 C 4.404 100.770,4.219 101.278,4.140 101.668 C 4.061 102.057,3.922 102.467,3.832 102.580 C 3.742 102.692,3.557 103.238,3.422 103.792 C 3.286 104.347,3.105 104.893,3.018 105.005 C 2.931 105.118,2.749 105.664,2.613 106.218 C 2.478 106.772,2.292 107.323,2.200 107.442 C 2.108 107.561,1.886 108.288,1.708 109.057 C 1.529 109.827,1.312 110.548,1.224 110.660 C 1.136 110.772,0.949 111.501,0.808 112.279 C 0.668 113.057,0.451 113.821,0.327 113.977 C 0.011 114.374,0.014 122.923,0.330 123.314 C 0.456 123.470,0.626 123.916,0.707 124.305 C 0.980 125.618,2.513 128.465,3.082 128.718 C 3.166 128.755,3.234 128.897,3.234 129.032 C 3.234 129.341,4.485 130.571,4.800 130.571 C 4.928 130.571,5.106 130.685,5.195 130.824 C 5.437 131.203,6.951 132.188,7.293 132.188 C 7.457 132.188,7.771 132.314,7.991 132.469 C 9.165 133.290,14.118 133.316,15.664 132.507 C 15.998 132.333,16.367 132.190,16.485 132.189 C 16.676 132.188,18.683 131.205,20.002 130.467 C 21.677 129.529,25.555 125.626,26.408 124.020 C 26.591 123.677,26.918 123.055,27.136 122.638 C 27.353 122.221,27.598 121.880,27.680 121.880 C 27.761 121.880,27.948 121.516,28.095 121.071 C 28.242 120.627,28.420 120.263,28.491 120.263 C 28.562 120.263,28.739 119.922,28.883 119.505 C 29.299 118.307,33.273 110.398,33.580 110.157 C 33.651 110.101,33.859 109.737,34.042 109.348 C 34.443 108.497,35.202 107.116,35.875 106.013 C 36.146 105.568,36.509 104.909,36.681 104.548 C 36.853 104.186,37.084 103.891,37.193 103.891 C 37.303 103.891,37.393 103.777,37.393 103.638 C 37.394 103.499,37.758 102.906,38.202 102.320 C 38.646 101.734,39.010 101.184,39.010 101.097 C 39.010 101.011,39.464 100.375,40.020 99.686 C 40.576 98.996,41.031 98.376,41.031 98.307 C 41.031 97.817,47.857 90.728,49.524 89.487 C 51.224 88.221,52.807 88.290,53.456 89.658 C 53.860 90.511,53.824 94.532,53.405 95.308 C 53.288 95.526,53.082 96.387,52.949 97.221 C 52.816 98.055,52.629 98.834,52.534 98.953 C 52.439 99.072,52.215 99.799,52.036 100.568 C 51.858 101.338,51.644 102.059,51.562 102.171 C 51.479 102.283,51.288 102.784,51.137 103.284 C 50.986 103.785,50.794 104.286,50.711 104.399 C 50.628 104.511,50.450 105.057,50.314 105.612 C 50.179 106.166,49.993 106.717,49.901 106.835 C 49.809 106.954,49.629 107.545,49.502 108.149 C 49.375 108.753,49.199 109.338,49.111 109.449 C 49.023 109.560,48.795 110.652,48.603 111.875 C 48.411 113.098,48.153 114.316,48.028 114.583 C 47.719 115.247,47.716 123.254,48.025 123.454 C 48.148 123.533,48.313 123.947,48.392 124.375 C 48.470 124.802,48.802 125.677,49.128 126.320 C 49.455 126.962,49.722 127.549,49.722 127.623 C 49.722 127.981,52.944 131.379,53.283 131.379 C 53.426 131.379,53.615 131.493,53.704 131.632 C 54.038 132.154,56.697 133.492,58.061 133.825 C 58.644 133.967,59.226 134.161,59.355 134.257 C 59.640 134.468,64.241 134.428,64.374 134.213 C 64.426 134.129,64.857 133.999,65.332 133.923 C 68.431 133.432,73.365 129.540,76.371 125.215 C 76.835 124.548,77.530 123.547,77.917 122.991 C 78.303 122.436,78.916 121.539,79.279 120.998 C 79.642 120.458,80.099 119.844,80.293 119.634 C 80.488 119.424,80.647 119.180,80.647 119.093 C 80.647 119.005,80.916 118.619,81.245 118.234 C 81.574 117.849,81.847 117.424,81.851 117.289 C 81.856 117.154,82.041 116.946,82.264 116.827 C 82.486 116.708,82.668 116.510,82.668 116.387 C 82.668 116.264,83.077 115.684,83.578 115.098 C 84.078 114.513,84.487 113.956,84.487 113.862 C 84.487 113.767,84.669 113.576,84.891 113.438 C 85.114 113.299,85.296 113.087,85.296 112.967 C 85.296 112.847,85.960 111.961,86.771 110.998 C 87.583 110.035,88.300 109.111,88.365 108.944 C 88.872 107.641,92.829 103.901,93.352 104.231 C 94.168 104.746,94.645 106.439,94.209 107.279 C 94.109 107.472,93.922 108.446,93.793 109.443 C 93.664 110.440,93.486 111.350,93.398 111.464 C 93.310 111.579,93.130 112.350,92.998 113.178 C 92.865 114.006,92.684 114.779,92.595 114.896 C 92.506 115.013,92.314 115.927,92.168 116.928 C 92.022 117.928,91.838 118.838,91.760 118.949 C 91.542 119.257,91.510 124.706,91.725 124.977 C 91.828 125.108,91.979 125.579,92.059 126.023 C 92.139 126.468,92.322 127.059,92.465 127.337 C 92.608 127.615,92.850 128.115,93.002 128.449 C 93.747 130.078,96.438 132.193,99.343 133.432 C 100.668 133.997,104.237 134.181,106.431 133.797 C 107.708 133.574,107.926 133.503,109.348 132.852 C 109.848 132.624,110.576 132.318,110.965 132.174 C 111.354 132.030,111.889 131.747,112.155 131.545 C 112.420 131.343,112.761 131.177,112.913 131.177 C 113.064 131.177,113.188 131.091,113.188 130.985 C 113.188 130.879,113.517 130.636,113.919 130.445 C 116.719 129.117,122.273 122.175,122.805 119.339 C 122.877 118.958,123.007 118.646,123.094 118.646 C 123.181 118.646,123.407 117.759,123.596 116.675 C 123.785 115.591,124.022 114.546,124.122 114.353 C 124.363 113.892,124.359 108.635,124.118 108.183 C 123.381 106.801,123.357 96.210,124.091 96.210 C 124.168 96.210,124.349 95.618,124.493 94.895 C 124.636 94.171,124.829 93.533,124.920 93.476 C 125.012 93.420,125.193 92.852,125.324 92.215 C 125.455 91.577,125.636 90.964,125.727 90.851 C 125.818 90.739,126.003 90.193,126.139 89.639 C 126.274 89.084,126.454 88.540,126.540 88.428 C 126.625 88.317,126.847 87.635,127.034 86.913 C 127.220 86.190,127.445 85.508,127.534 85.397 C 127.622 85.285,127.760 84.876,127.840 84.487 C 127.920 84.098,128.104 83.507,128.248 83.173 C 128.392 82.840,128.616 82.113,128.747 81.559 C 128.877 81.005,129.059 80.459,129.151 80.346 C 129.243 80.234,129.437 79.414,129.582 78.525 C 129.727 77.635,129.908 76.862,129.983 76.806 C 130.709 76.273,130.708 64.510,129.981 63.574 C 129.892 63.459,129.763 63.070,129.695 62.708 C 129.345 60.864,127.071 57.016,125.686 55.926 C 125.316 55.635,124.831 55.234,124.609 55.035 C 123.805 54.318,121.380 53.084,120.162 52.772 C 119.606 52.630,118.933 52.409,118.665 52.280 C 118.004 51.962,111.136 51.959,110.743 52.276 C 110.587 52.403,110.051 52.574,109.550 52.656 C 107.748 52.954,103.602 54.824,99.444 57.213 C 99.166 57.373,98.893 57.549,98.838 57.605 C 98.666 57.777,97.560 58.390,96.817 58.726 C 96.427 58.901,95.791 59.198,95.402 59.386 C 94.902 59.627,94.170 59.727,92.904 59.727 L 91.115 59.727 90.075 58.602 C 89.503 57.983,88.643 56.710,88.165 55.772 C 87.686 54.835,87.100 53.711,86.863 53.275 C 86.330 52.293,83.010 48.914,82.579 48.914 C 82.532 48.914,81.912 48.644,81.201 48.315 C 80.490 47.986,79.527 47.656,79.060 47.581 C 78.594 47.507,78.164 47.367,78.104 47.270 C 77.963 47.041,72.904 47.041,72.653 47.269 C 72.547 47.365,71.870 47.556,71.147 47.693 C 70.424 47.829,69.742 48.014,69.631 48.103 C 69.520 48.193,68.974 48.406,68.418 48.578 C 67.290 48.926,64.961 50.122,61.220 52.273 C 59.843 53.065,58.422 53.777,58.062 53.855 C 57.702 53.934,57.355 54.082,57.292 54.184 C 57.229 54.287,56.700 54.371,56.117 54.371 C 54.325 54.371,53.360 53.010,53.360 50.481 C 53.360 49.840,53.270 49.318,53.158 49.318 C 53.032 49.318,52.955 48.054,52.955 45.932 C 52.953 42.652,52.740 40.348,52.360 39.515 C 52.259 39.293,52.069 38.747,51.938 38.302 C 51.288 36.091,48.101 31.531,47.206 31.531 C 47.145 31.531,46.663 31.229,46.135 30.859 C 45.607 30.490,44.765 30.070,44.265 29.927 C 43.765 29.783,43.173 29.583,42.951 29.483 C 42.729 29.382,42.319 29.309,42.041 29.321 C 41.764 29.334,41.218 29.301,40.829 29.248 C 40.440 29.196,39.803 29.191,39.414 29.237 M42.398 35.348 C 42.591 35.446,43.017 35.651,43.346 35.803 C 44.144 36.172,46.058 38.129,46.209 38.731 C 46.276 38.995,46.400 39.212,46.486 39.212 C 46.572 39.212,46.751 39.643,46.883 40.169 C 47.016 40.696,47.231 41.255,47.362 41.413 C 47.531 41.616,47.629 43.894,47.701 49.255 C 47.766 54.156,47.876 56.862,48.013 56.955 C 48.128 57.035,48.355 57.508,48.516 58.007 C 49.860 62.177,55.519 62.806,60.168 59.302 C 60.522 59.036,60.864 58.818,60.928 58.818 C 60.993 58.818,61.498 58.499,62.052 58.110 C 62.605 57.721,63.119 57.403,63.193 57.403 C 63.267 57.403,63.625 57.175,63.989 56.898 C 64.354 56.620,64.885 56.304,65.171 56.195 C 65.456 56.087,65.690 55.919,65.690 55.823 C 65.690 55.727,66.054 55.528,66.498 55.382 C 66.943 55.235,67.307 55.053,67.307 54.977 C 67.307 54.902,67.671 54.720,68.115 54.573 C 68.560 54.426,68.924 54.244,68.924 54.169 C 68.924 54.093,69.310 53.911,69.783 53.765 C 70.255 53.618,70.824 53.390,71.046 53.256 C 72.634 52.305,77.645 52.386,79.061 53.386 C 79.356 53.594,79.693 53.765,79.809 53.765 C 79.925 53.765,80.093 53.888,80.182 54.038 C 80.271 54.189,80.548 54.419,80.798 54.551 C 81.049 54.682,81.253 54.880,81.253 54.991 C 81.253 55.102,81.503 55.441,81.809 55.745 C 82.296 56.228,83.881 59.145,83.881 59.559 C 83.881 59.884,85.550 63.062,85.721 63.062 C 85.821 63.062,85.902 63.172,85.902 63.306 C 85.902 63.637,87.333 65.083,87.661 65.083 C 87.805 65.083,87.923 65.158,87.923 65.249 C 87.923 66.156,92.703 66.749,94.088 66.014 C 94.421 65.837,94.791 65.692,94.909 65.691 C 95.130 65.690,97.322 64.604,98.737 63.795 C 100.743 62.648,101.095 62.440,101.813 61.977 C 103.349 60.988,107.478 58.818,107.825 58.818 C 107.897 58.818,108.360 58.633,108.854 58.408 C 109.348 58.183,110.048 57.943,110.409 57.875 C 110.771 57.806,111.194 57.649,111.350 57.526 C 111.765 57.198,117.334 57.223,117.665 57.554 C 117.804 57.693,118.052 57.807,118.215 57.807 C 118.655 57.807,121.071 59.022,121.071 59.244 C 121.071 59.348,121.301 59.521,121.582 59.628 C 121.863 59.735,122.151 59.983,122.224 60.179 C 122.296 60.375,122.582 60.750,122.858 61.012 C 123.405 61.529,124.387 63.404,124.620 64.376 C 124.700 64.709,124.866 65.110,124.990 65.266 C 125.311 65.672,125.298 74.555,124.975 75.210 C 124.844 75.476,124.633 76.330,124.507 77.106 C 124.380 77.882,124.208 78.610,124.123 78.723 C 124.038 78.836,123.847 79.474,123.699 80.141 C 123.550 80.808,123.364 81.445,123.284 81.556 C 123.204 81.668,123.074 82.077,122.993 82.466 C 122.913 82.855,122.726 83.446,122.577 83.780 C 122.428 84.113,122.158 84.932,121.976 85.599 C 121.795 86.266,121.524 87.084,121.375 87.418 C 121.226 87.751,121.042 88.365,120.964 88.782 C 120.887 89.199,120.753 89.540,120.667 89.540 C 120.581 89.540,120.447 89.881,120.370 90.298 C 120.292 90.715,120.108 91.329,119.961 91.662 C 119.813 91.996,119.581 92.769,119.446 93.380 C 119.310 93.992,119.131 94.583,119.047 94.694 C 118.326 95.653,118.033 102.176,118.523 106.357 C 119.047 110.824,118.829 115.719,118.041 117.202 C 117.944 117.385,117.572 118.171,117.214 118.949 C 116.856 119.727,116.258 120.743,115.886 121.206 C 115.514 121.670,115.210 122.107,115.210 122.179 C 115.210 122.338,112.376 125.110,112.201 125.122 C 112.133 125.126,111.762 125.399,111.377 125.728 C 110.992 126.057,110.607 126.326,110.522 126.326 C 110.437 126.326,109.887 126.627,109.302 126.995 C 108.716 127.363,107.827 127.781,107.327 127.924 C 106.827 128.068,106.259 128.267,106.066 128.367 C 105.587 128.616,101.924 128.600,101.769 128.348 C 101.700 128.236,101.481 128.146,101.281 128.146 C 101.082 128.146,100.610 127.920,100.232 127.645 C 99.854 127.370,99.341 127.054,99.090 126.943 C 98.840 126.832,98.636 126.610,98.636 126.449 C 98.636 126.289,98.564 126.128,98.477 126.091 C 97.204 125.552,96.525 118.694,97.611 117.342 C 97.705 117.225,97.847 116.721,97.926 116.220 C 98.006 115.720,98.190 115.038,98.336 114.704 C 98.481 114.371,98.707 113.598,98.838 112.986 C 98.969 112.375,99.192 111.602,99.334 111.268 C 99.475 110.935,99.708 110.071,99.851 109.348 C 99.994 108.626,100.178 107.943,100.259 107.832 C 100.341 107.721,100.524 106.948,100.666 106.114 C 100.807 105.280,100.992 104.507,101.076 104.396 C 101.859 103.358,101.778 96.415,100.964 94.885 C 99.720 92.545,96.651 91.281,95.087 92.465 C 94.871 92.628,94.573 92.764,94.424 92.768 C 93.836 92.782,89.742 96.257,89.742 96.742 C 89.742 96.808,89.378 97.297,88.933 97.828 C 88.488 98.360,88.010 99.009,87.872 99.271 C 87.733 99.533,87.324 100.173,86.963 100.693 C 86.602 101.214,86.306 101.699,86.306 101.772 C 86.306 101.955,85.028 103.774,84.841 103.857 C 84.757 103.894,84.689 104.006,84.689 104.105 C 84.689 104.278,82.437 107.681,81.624 108.737 C 80.470 110.234,79.232 112.017,79.232 112.180 C 79.232 112.282,79.050 112.463,78.828 112.582 C 78.605 112.701,78.423 112.892,78.423 113.007 C 78.423 113.178,77.602 114.294,76.401 115.757 C 76.290 115.891,76.200 116.057,76.200 116.126 C 76.200 116.195,75.791 116.783,75.291 117.433 C 74.790 118.083,74.381 118.690,74.381 118.782 C 74.381 118.874,73.972 119.470,73.471 120.107 C 72.971 120.745,72.562 121.320,72.562 121.386 C 72.562 121.989,67.411 127.337,66.830 127.337 C 66.671 127.337,66.489 127.473,66.425 127.640 C 66.361 127.807,66.192 127.944,66.050 127.945 C 65.907 127.945,65.537 128.079,65.226 128.241 C 63.134 129.332,58.008 128.796,57.140 127.396 C 57.051 127.252,56.865 127.135,56.727 127.135 C 55.890 127.135,53.649 123.780,53.433 122.203 C 53.362 121.685,53.226 121.214,53.130 121.155 C 52.884 121.003,52.910 116.475,53.158 116.321 C 53.269 116.253,53.360 115.945,53.360 115.638 C 53.360 114.822,53.982 111.303,54.168 111.066 C 54.256 110.955,54.434 110.343,54.565 109.705 C 54.695 109.068,54.877 108.501,54.968 108.444 C 55.059 108.388,55.197 108.000,55.274 107.582 C 55.352 107.164,55.536 106.549,55.684 106.215 C 55.832 105.882,56.064 105.245,56.199 104.800 C 56.334 104.356,56.521 103.895,56.615 103.776 C 56.709 103.657,56.928 102.929,57.103 102.159 C 57.278 101.388,57.544 100.485,57.694 100.152 C 57.844 99.818,58.032 99.136,58.112 98.636 C 58.192 98.135,58.326 97.635,58.410 97.524 C 58.494 97.413,58.672 96.685,58.806 95.907 C 58.940 95.129,59.129 94.310,59.227 94.088 C 59.455 93.567,59.828 91.013,59.828 89.968 C 59.828 89.524,59.919 89.104,60.030 89.035 C 60.278 88.882,60.301 86.575,60.056 86.423 C 59.960 86.364,59.839 85.881,59.787 85.350 C 59.461 81.969,55.124 79.198,52.397 80.629 C 52.204 80.730,51.501 81.068,50.834 81.379 C 49.534 81.987,47.365 83.508,46.931 84.116 C 46.786 84.320,46.562 84.487,46.432 84.487 C 46.163 84.487,44.063 86.508,44.063 86.767 C 44.063 86.861,43.438 87.592,42.675 88.391 C 40.651 90.508,37.797 93.713,37.797 93.868 C 37.797 93.941,37.219 94.703,36.513 95.560 C 35.806 96.418,35.109 97.347,34.964 97.625 C 34.818 97.903,34.350 98.593,33.924 99.159 C 33.497 99.725,33.148 100.244,33.148 100.311 C 33.148 100.379,32.853 100.871,32.492 101.405 C 31.803 102.424,31.427 103.062,30.728 104.396 C 30.495 104.841,30.034 105.659,29.704 106.215 C 29.373 106.771,28.992 107.453,28.856 107.731 C 28.720 108.009,28.561 108.282,28.503 108.338 C 28.301 108.532,25.265 114.736,25.265 114.955 C 25.265 115.077,25.197 115.206,25.114 115.243 C 25.030 115.280,24.433 116.357,23.787 117.635 C 21.881 121.403,21.384 122.110,19.154 124.218 C 16.259 126.956,12.949 128.008,9.943 127.146 C 9.268 126.953,6.874 125.156,6.873 124.842 C 6.872 124.748,6.707 124.429,6.506 124.134 C 6.304 123.839,6.022 123.188,5.880 122.688 C 5.737 122.188,5.538 121.621,5.438 121.428 C 5.209 120.988,5.196 115.966,5.422 115.705 C 5.514 115.599,5.705 114.785,5.846 113.896 C 5.988 113.007,6.189 112.175,6.293 112.048 C 6.397 111.920,6.464 111.738,6.442 111.643 C 6.421 111.548,6.502 111.230,6.624 110.936 C 6.746 110.642,6.909 110.051,6.986 109.622 C 7.064 109.194,7.192 108.752,7.271 108.641 C 7.351 108.530,7.537 107.984,7.685 107.428 C 7.832 106.872,8.067 106.235,8.206 106.013 C 8.345 105.791,8.522 105.268,8.598 104.851 C 8.674 104.434,8.807 104.093,8.893 104.093 C 8.980 104.093,9.114 103.752,9.191 103.335 C 9.268 102.918,9.455 102.304,9.606 101.971 C 9.757 101.637,9.984 100.963,10.111 100.473 C 10.237 99.983,10.461 99.392,10.608 99.159 C 10.755 98.927,10.938 98.418,11.016 98.029 C 11.093 97.640,11.266 97.140,11.400 96.918 C 11.534 96.695,11.771 96.104,11.927 95.604 C 12.084 95.104,12.265 94.649,12.329 94.593 C 12.394 94.538,12.574 94.083,12.728 93.583 C 12.882 93.082,13.064 92.582,13.132 92.471 C 13.200 92.360,13.373 91.905,13.517 91.460 C 13.660 91.016,13.899 90.379,14.048 90.045 C 14.196 89.712,14.380 89.098,14.457 88.681 C 14.535 88.264,14.684 87.923,14.789 87.923 C 14.895 87.923,14.922 87.828,14.851 87.712 C 14.779 87.596,14.805 87.392,14.908 87.257 C 15.012 87.123,15.217 86.559,15.365 86.003 C 15.513 85.447,15.748 84.811,15.887 84.588 C 16.026 84.366,16.202 83.843,16.278 83.426 C 16.355 83.009,16.488 82.668,16.574 82.668 C 16.660 82.668,16.787 82.372,16.856 82.011 C 16.924 81.650,17.097 81.127,17.239 80.849 C 17.381 80.571,17.625 79.934,17.783 79.434 C 17.940 78.934,18.176 78.343,18.307 78.120 C 18.437 77.898,18.667 77.284,18.816 76.756 C 18.966 76.228,19.152 75.796,19.230 75.796 C 19.308 75.796,19.435 75.500,19.512 75.139 C 19.589 74.778,19.771 74.255,19.917 73.977 C 20.062 73.699,20.374 73.017,20.611 72.461 C 20.848 71.905,21.208 71.086,21.412 70.642 C 21.616 70.197,21.899 69.515,22.040 69.126 C 22.289 68.442,22.716 67.446,23.621 65.439 C 23.858 64.912,24.053 64.397,24.053 64.293 C 24.053 64.190,24.180 63.848,24.336 63.533 C 24.884 62.430,25.467 61.096,25.467 60.948 C 25.467 60.866,25.593 60.512,25.747 60.162 C 25.901 59.812,26.142 59.207,26.284 58.818 C 26.426 58.428,26.703 57.743,26.899 57.295 C 27.096 56.846,27.319 56.232,27.395 55.930 C 27.470 55.628,27.595 55.382,27.672 55.382 C 27.749 55.382,27.934 55.040,28.083 54.624 C 28.232 54.207,28.409 53.820,28.477 53.765 C 28.666 53.609,30.116 50.578,30.116 50.338 C 30.116 50.222,30.193 50.126,30.286 50.126 C 30.379 50.126,30.576 49.763,30.723 49.318 C 30.869 48.873,31.046 48.509,31.115 48.509 C 31.184 48.509,31.348 48.259,31.479 47.954 C 31.611 47.648,31.800 47.261,31.899 47.094 C 32.226 46.545,33.698 43.369,33.960 42.648 C 35.176 39.298,37.546 35.897,38.844 35.637 C 39.162 35.573,39.471 35.442,39.531 35.345 C 39.673 35.115,41.945 35.117,42.398 35.348 M147.852 129.696 C 147.519 129.749,147.160 129.878,147.054 129.980 C 146.948 130.083,146.689 130.167,146.477 130.167 C 146.126 130.167,145.004 130.665,143.709 131.395 C 143.062 131.761,140.879 133.833,140.879 134.083 C 140.879 134.187,140.668 134.554,140.409 134.898 C 139.995 135.448,139.468 136.478,138.536 138.555 C 138.386 138.888,138.155 139.798,138.023 140.576 C 137.890 141.354,137.706 142.077,137.613 142.183 C 137.384 142.442,137.395 148.271,137.625 148.714 C 137.776 149.005,138.247 152.213,138.509 154.726 C 138.543 155.061,138.624 155.425,138.688 155.535 C 138.752 155.645,138.919 156.508,139.060 157.453 C 139.201 158.398,139.382 159.262,139.462 159.373 C 139.543 159.485,139.721 160.167,139.859 160.889 C 139.996 161.612,140.178 162.294,140.263 162.405 C 140.348 162.516,140.474 162.903,140.543 163.264 C 140.611 163.626,140.851 164.325,141.076 164.820 C 141.301 165.314,141.486 165.819,141.486 165.942 C 141.486 166.560,144.984 173.617,145.376 173.791 C 145.460 173.829,145.528 173.953,145.528 174.068 C 145.528 174.182,145.834 174.698,146.208 175.213 C 146.581 175.728,146.922 176.254,146.966 176.381 C 147.009 176.508,147.635 177.316,148.358 178.176 C 149.080 179.036,149.763 179.892,149.874 180.078 C 150.130 180.506,161.082 191.441,161.528 191.713 C 161.710 191.824,162.543 192.484,163.380 193.178 C 164.216 193.873,164.952 194.442,165.016 194.442 C 165.081 194.442,165.576 194.760,166.118 195.149 C 166.659 195.538,167.190 195.856,167.296 195.856 C 167.403 195.856,167.892 196.122,168.384 196.447 C 168.875 196.772,169.550 197.104,169.884 197.186 C 170.217 197.267,170.536 197.388,170.591 197.454 C 170.796 197.698,172.536 198.468,173.362 198.681 C 173.830 198.801,174.261 198.979,174.321 199.076 C 174.381 199.173,174.908 199.364,175.492 199.501 C 176.076 199.638,176.645 199.814,176.756 199.893 C 176.867 199.972,177.686 200.193,178.575 200.385 C 179.464 200.576,180.337 200.810,180.514 200.904 C 180.690 200.998,181.736 201.183,182.838 201.315 C 183.940 201.448,185.059 201.661,185.326 201.789 C 186.006 202.115,194.808 202.109,195.472 201.783 C 195.739 201.651,196.725 201.439,197.662 201.311 C 198.600 201.183,199.691 200.955,200.088 200.804 C 200.484 200.653,201.354 200.423,202.021 200.294 C 202.688 200.164,203.325 199.988,203.436 199.903 C 203.547 199.819,204.002 199.685,204.447 199.605 C 204.891 199.526,205.528 199.339,205.862 199.189 C 206.195 199.039,207.014 198.805,207.681 198.667 C 208.348 198.530,208.986 198.348,209.099 198.263 C 209.213 198.178,209.940 197.998,210.716 197.864 C 211.492 197.731,212.173 197.560,212.228 197.485 C 212.284 197.411,213.103 197.229,214.047 197.082 C 214.992 196.934,215.856 196.747,215.968 196.666 C 216.079 196.585,216.306 196.510,216.473 196.501 C 217.073 196.467,219.579 195.844,219.792 195.677 C 219.912 195.582,220.374 195.440,220.819 195.361 C 221.263 195.282,221.900 195.098,222.233 194.954 C 222.567 194.809,223.158 194.579,223.547 194.442 C 223.936 194.304,224.528 194.076,224.861 193.935 C 225.195 193.794,225.695 193.616,225.973 193.539 C 227.038 193.246,232.036 190.804,232.036 190.576 C 232.036 190.479,232.138 190.399,232.263 190.399 C 232.580 190.399,234.080 189.448,235.369 188.428 C 235.967 187.956,236.521 187.569,236.600 187.569 C 236.771 187.569,236.915 187.439,239.970 184.512 C 241.276 183.260,242.345 182.117,242.345 181.972 C 242.345 181.827,242.418 181.708,242.508 181.708 C 242.665 181.708,244.155 179.564,244.750 178.483 C 244.906 178.200,245.286 177.514,245.594 176.958 C 245.902 176.402,246.530 175.220,246.990 174.330 C 247.944 172.481,248.463 171.545,248.615 171.400 C 248.672 171.344,248.835 171.071,248.976 170.793 C 249.118 170.515,249.541 169.742,249.917 169.075 C 250.294 168.408,251.115 166.862,251.743 165.639 C 253.205 162.792,253.528 162.218,253.714 162.136 C 253.797 162.099,253.866 161.977,253.866 161.866 C 253.866 161.754,254.542 160.284,255.369 158.598 C 257.317 154.626,258.242 152.623,258.416 151.996 C 258.493 151.718,258.666 151.309,258.800 151.086 C 258.933 150.864,259.161 150.273,259.305 149.773 C 259.449 149.272,259.638 148.772,259.725 148.661 C 259.812 148.550,259.948 148.140,260.028 147.751 C 260.108 147.362,260.296 146.771,260.445 146.438 C 260.773 145.702,261.142 143.712,261.142 142.673 C 261.142 142.255,261.233 141.857,261.344 141.789 C 261.455 141.720,261.546 141.356,261.546 140.980 C 261.546 140.604,261.455 140.241,261.344 140.172 C 261.233 140.103,261.142 139.749,261.142 139.385 C 261.142 138.431,260.713 136.433,260.508 136.433 C 260.412 136.433,260.334 136.319,260.334 136.180 C 260.334 135.755,258.404 133.113,257.911 132.863 C 257.657 132.734,257.393 132.552,257.325 132.458 C 257.131 132.192,255.584 131.178,255.371 131.176 C 255.265 131.175,254.910 131.034,254.580 130.862 C 252.895 129.984,249.609 130.057,246.993 131.032 C 245.343 131.647,241.536 134.872,241.536 135.655 C 241.536 135.765,241.263 136.251,240.930 136.736 C 240.596 137.220,240.323 137.707,240.323 137.816 C 240.323 137.926,240.255 138.046,240.172 138.083 C 240.003 138.158,239.589 138.855,238.808 140.374 C 237.859 142.221,237.640 142.592,237.059 143.334 C 236.742 143.739,236.483 144.157,236.483 144.263 C 236.483 144.369,235.869 145.163,235.119 146.027 C 234.368 146.892,233.663 147.744,233.552 147.921 C 233.220 148.449,229.861 151.794,229.663 151.794 C 229.562 151.794,229.259 152.031,228.989 152.320 C 228.369 152.986,225.452 155.432,225.278 155.432 C 225.206 155.432,224.665 155.796,224.076 156.241 C 223.487 156.685,222.939 157.049,222.858 157.049 C 222.777 157.049,222.320 157.318,221.843 157.646 C 221.366 157.974,220.577 158.400,220.089 158.592 C 219.601 158.784,219.156 158.998,219.101 159.068 C 219.045 159.137,218.681 159.313,218.292 159.459 C 217.903 159.604,217.221 159.889,216.776 160.091 C 215.164 160.826,214.487 161.091,214.219 161.093 C 214.069 161.093,213.699 161.223,213.397 161.381 C 213.094 161.538,212.139 161.816,211.274 161.996 C 210.410 162.177,209.544 162.412,209.351 162.517 C 209.158 162.622,207.884 162.808,206.521 162.930 C 205.158 163.052,203.885 163.234,203.691 163.334 C 203.201 163.590,197.069 163.572,197.069 163.315 C 197.069 163.204,196.664 163.113,196.168 163.113 C 195.006 163.113,192.235 162.731,191.713 162.500 C 191.491 162.401,190.718 162.213,189.995 162.081 C 189.272 161.950,188.584 161.767,188.465 161.675 C 188.346 161.583,187.755 161.405,187.151 161.279 C 186.548 161.154,185.872 160.942,185.649 160.808 C 185.427 160.675,184.836 160.437,184.336 160.281 C 183.835 160.125,183.380 159.942,183.325 159.876 C 183.269 159.809,182.906 159.629,182.516 159.474 C 182.127 159.320,181.764 159.137,181.708 159.068 C 181.652 158.998,181.200 158.781,180.702 158.585 C 180.204 158.389,179.403 157.963,178.923 157.639 C 178.443 157.314,177.979 157.049,177.893 157.049 C 177.808 157.049,177.380 156.779,176.944 156.448 C 176.507 156.118,176.082 155.845,176.000 155.842 C 175.842 155.836,175.822 155.821,173.885 154.235 C 173.195 153.671,172.579 153.209,172.517 153.209 C 172.374 153.209,168.338 149.141,168.065 148.721 C 167.889 148.452,166.539 146.718,165.933 145.983 C 165.818 145.844,165.781 145.730,165.850 145.730 C 165.920 145.730,165.712 145.389,165.389 144.972 C 165.066 144.555,164.321 143.236,163.734 142.041 C 163.147 140.846,162.600 139.869,162.518 139.869 C 162.436 139.869,162.249 139.505,162.102 139.060 C 161.955 138.615,161.759 138.252,161.665 138.252 C 161.572 138.252,161.496 138.129,161.496 137.979 C 161.496 137.829,161.223 137.329,160.889 136.869 C 160.556 136.408,160.283 135.931,160.283 135.808 C 160.283 134.695,154.908 130.604,152.960 130.235 C 152.596 130.166,152.207 130.038,152.094 129.951 C 151.838 129.753,148.675 129.562,147.852 129.696 M152.554 136.054 C 153.434 136.492,154.231 137.124,155.140 138.107 C 156.498 139.573,156.584 139.712,158.709 143.869 C 160.604 147.574,160.705 147.751,160.906 147.751 C 161.008 147.751,161.091 147.881,161.091 148.039 C 161.091 148.197,161.319 148.597,161.597 148.927 C 161.875 149.258,162.102 149.631,162.102 149.758 C 162.102 149.884,162.239 150.040,162.405 150.104 C 162.572 150.168,162.708 150.332,162.708 150.469 C 162.708 150.606,163.765 151.827,165.057 153.183 C 167.047 155.271,168.130 156.282,171.248 158.968 C 171.443 159.135,171.655 159.272,171.720 159.272 C 171.893 159.272,173.712 160.559,173.791 160.738 C 173.829 160.821,173.944 160.889,174.048 160.889 C 174.152 160.889,174.622 161.135,175.092 161.436 C 175.983 162.006,178.006 163.129,178.878 163.538 C 179.156 163.669,180.111 164.119,181.001 164.539 C 181.890 164.958,182.981 165.408,183.426 165.538 C 183.871 165.669,184.507 165.896,184.841 166.044 C 185.174 166.192,185.811 166.378,186.256 166.457 C 186.700 166.537,187.155 166.669,187.266 166.751 C 187.377 166.833,188.105 167.015,188.883 167.155 C 189.661 167.296,190.389 167.482,190.500 167.568 C 190.611 167.655,191.657 167.833,192.825 167.964 C 193.992 168.094,195.161 168.305,195.422 168.431 C 196.083 168.750,205.408 168.717,205.516 168.395 C 205.558 168.269,205.926 168.166,206.333 168.166 C 207.378 168.166,210.490 167.722,210.611 167.555 C 210.667 167.479,211.349 167.300,212.127 167.158 C 212.906 167.016,213.633 166.833,213.744 166.751 C 213.855 166.669,214.424 166.490,215.008 166.353 C 215.592 166.216,216.119 166.025,216.179 165.928 C 216.239 165.831,216.671 165.656,217.138 165.540 C 217.606 165.424,218.353 165.159,218.797 164.950 C 221.735 163.569,224.987 161.918,225.699 161.445 C 226.160 161.139,226.600 160.889,226.678 160.889 C 226.857 160.889,229.573 158.841,230.137 158.280 C 230.372 158.048,230.646 157.858,230.748 157.858 C 231.060 157.858,236.165 152.901,237.993 150.823 C 240.314 148.185,240.323 148.173,240.323 148.031 C 240.323 147.963,240.663 147.444,241.078 146.878 C 241.892 145.770,242.317 145.079,242.964 143.810 C 243.191 143.365,243.639 142.547,243.960 141.991 C 244.282 141.435,244.664 140.754,244.809 140.478 C 245.114 139.897,245.243 139.732,246.499 138.315 C 247.469 137.222,249.076 136.230,249.880 136.230 C 250.138 136.230,250.458 136.121,250.591 135.988 C 250.780 135.799,250.888 135.799,251.076 135.988 C 251.210 136.121,251.531 136.230,251.790 136.230 C 252.816 136.230,255.075 137.823,255.080 138.549 C 255.080 138.663,255.234 139.030,255.422 139.363 C 255.827 140.083,255.917 143.570,255.551 144.343 C 255.427 144.606,255.176 145.412,254.994 146.134 C 254.811 146.857,254.528 147.744,254.365 148.105 C 253.837 149.271,253.510 150.060,253.254 150.783 C 253.003 151.493,247.992 161.710,247.802 161.900 C 247.746 161.956,247.397 162.592,247.026 163.315 C 246.168 164.984,245.302 166.601,244.645 167.761 C 244.362 168.262,243.735 169.421,243.252 170.338 C 242.769 171.254,242.208 172.255,242.005 172.561 C 241.803 172.867,241.414 173.573,241.141 174.128 C 240.869 174.684,240.391 175.519,240.080 175.984 C 239.769 176.449,239.515 176.929,239.515 177.051 C 239.515 177.174,239.378 177.326,239.212 177.390 C 239.045 177.454,238.909 177.617,238.909 177.752 C 238.909 178.733,232.205 184.638,229.409 186.120 C 227.975 186.880,226.449 187.642,225.366 188.138 C 224.755 188.419,224.027 188.756,223.749 188.889 C 223.471 189.021,222.790 189.240,222.236 189.375 C 221.682 189.510,221.136 189.692,221.023 189.779 C 220.911 189.866,220.365 190.047,219.811 190.183 C 219.256 190.318,218.711 190.503,218.598 190.594 C 218.485 190.685,217.847 190.865,217.180 190.994 C 216.513 191.123,215.786 191.308,215.563 191.406 C 215.341 191.503,214.522 191.692,213.744 191.826 C 212.966 191.960,212.239 192.126,212.127 192.194 C 212.016 192.262,211.198 192.465,210.308 192.644 C 208.248 193.060,205.354 193.809,204.925 194.038 C 204.743 194.135,204.038 194.329,203.358 194.469 C 202.678 194.610,202.122 194.787,202.122 194.863 C 202.122 194.940,201.508 195.115,200.758 195.254 C 200.008 195.392,199.303 195.572,199.192 195.654 C 199.080 195.736,198.353 195.913,197.575 196.048 C 196.796 196.183,196.023 196.349,195.856 196.417 C 194.858 196.825,185.275 196.868,184.942 196.466 C 184.886 196.399,184.025 196.229,183.028 196.088 C 182.030 195.947,181.121 195.760,181.006 195.672 C 180.892 195.585,180.230 195.396,179.535 195.253 C 178.840 195.110,178.272 194.926,178.272 194.845 C 178.272 194.763,177.958 194.646,177.575 194.584 C 177.191 194.521,176.577 194.334,176.210 194.166 C 175.843 193.999,175.134 193.725,174.634 193.558 C 172.122 192.715,167.637 190.043,165.154 187.909 C 163.523 186.507,152.804 175.619,152.804 175.364 C 152.804 175.297,152.350 174.678,151.794 173.988 C 151.238 173.298,150.783 172.655,150.783 172.559 C 150.783 172.462,150.565 172.094,150.298 171.740 C 149.622 170.843,148.941 169.622,147.740 167.155 C 146.254 164.103,146.187 163.946,145.816 162.607 C 145.631 161.940,145.408 161.304,145.321 161.193 C 145.233 161.081,145.049 160.399,144.912 159.677 C 144.774 158.954,144.593 158.272,144.510 158.161 C 144.426 158.050,144.242 157.094,144.099 156.038 C 143.957 154.982,143.771 154.024,143.685 153.908 C 143.599 153.793,143.419 152.656,143.286 151.382 C 143.154 150.108,142.967 148.979,142.872 148.873 C 142.642 148.619,142.647 142.956,142.877 142.814 C 142.975 142.753,143.121 142.270,143.200 141.741 C 143.279 141.211,143.460 140.551,143.603 140.273 C 143.745 139.995,143.986 139.495,144.137 139.161 C 145.580 135.988,149.506 134.539,152.554 136.054 " stroke="none" fill="#333" fill-rule="evenodd"></path></g></svg>
