<svg id="svg" version="1.1" width="400" height="109.5873015873016" viewBox="0 0 400 109.5873015873016" xmlns="http://www.w3.org/2000/svg" xmlns:xlink="http://www.w3.org/1999/xlink" ><g id="svgg"><path id="path0" d="M239.250 0.165 C 236.812 0.516,234.933 1.878,229.896 6.943 C 228.951 7.894,228.081 8.967,227.600 9.778 C 227.174 10.496,226.757 11.196,226.673 11.333 C 226.334 11.888,224.339 15.972,224.027 16.750 C 222.901 19.556,222.252 21.379,221.504 23.833 C 220.746 26.320,220.480 27.157,220.207 27.917 C 220.075 28.283,219.939 28.727,219.904 28.902 C 219.870 29.078,219.736 29.565,219.608 29.986 C 219.479 30.406,219.245 31.238,219.088 31.833 C 218.931 32.429,218.697 33.163,218.568 33.464 C 218.439 33.765,218.333 34.106,218.333 34.222 C 218.333 34.338,218.202 34.604,218.042 34.814 C 216.497 36.839,216.881 36.733,208.833 37.339 C 206.803 37.492,204.256 38.010,203.929 38.337 C 203.840 38.427,203.662 38.500,203.533 38.500 C 203.093 38.500,201.399 39.674,200.462 40.628 C 197.519 43.627,197.510 47.547,200.442 50.435 C 201.929 51.901,203.212 52.460,207.053 53.317 C 210.128 54.003,210.679 55.199,209.514 58.667 C 208.039 63.061,208.303 66.136,210.331 68.164 C 213.161 70.994,217.769 70.555,221.113 67.136 C 222.668 65.547,223.197 64.337,224.087 60.333 C 225.556 53.724,226.429 52.936,232.667 52.587 C 239.898 52.182,244.006 50.434,243.998 47.766 C 243.988 44.189,242.260 42.848,235.167 40.912 C 232.094 40.073,231.406 38.796,232.299 35.583 C 233.299 31.986,234.210 28.410,234.443 27.167 C 235.133 23.486,237.023 18.371,238.510 16.161 C 240.611 13.038,243.480 12.295,245.824 14.268 C 246.581 14.905,249.833 19.338,249.833 19.732 C 249.833 19.922,251.094 21.979,251.700 22.778 C 253.412 25.036,256.295 25.892,258.577 24.819 C 261.713 23.345,262.130 19.819,259.668 15.606 C 259.300 14.977,259.000 14.439,259.000 14.409 C 259.000 14.379,258.662 13.861,258.250 13.259 C 257.837 12.656,257.500 12.124,257.500 12.075 C 257.500 12.027,257.237 11.597,256.917 11.121 C 256.596 10.644,256.333 10.160,256.333 10.044 C 256.333 9.928,256.264 9.833,256.180 9.833 C 256.095 9.833,255.939 9.571,255.833 9.250 C 255.727 8.929,255.572 8.667,255.487 8.667 C 255.403 8.667,255.333 8.583,255.333 8.480 C 255.333 7.435,251.511 3.304,249.406 2.075 C 246.663 0.472,242.525 -0.306,239.250 0.165 M243.750 2.764 C 248.144 3.541,250.897 5.636,253.367 10.083 C 253.928 11.092,255.020 12.922,255.794 14.151 C 258.857 19.011,259.272 20.936,257.515 22.120 C 255.859 23.236,254.064 22.123,252.312 18.892 C 247.544 10.102,242.621 8.140,237.750 13.088 C 237.017 13.833,236.307 14.662,236.174 14.930 C 236.040 15.197,235.844 15.529,235.738 15.667 C 234.918 16.729,232.762 22.935,232.063 26.250 C 231.748 27.741,231.211 29.914,230.662 31.917 C 229.142 37.461,228.980 38.504,229.419 39.902 C 229.962 41.626,231.160 42.528,233.750 43.160 C 239.180 44.485,240.995 45.608,240.499 47.337 C 240.001 49.073,237.144 49.887,230.250 50.258 C 225.218 50.528,223.304 52.407,221.940 58.417 C 220.760 63.614,220.206 64.864,218.601 65.952 C 218.225 66.207,217.879 66.454,217.833 66.500 C 216.782 67.559,213.853 67.633,212.632 66.632 C 210.884 65.199,210.744 63.400,212.045 59.083 C 212.749 56.749,212.874 56.170,212.875 55.250 C 212.876 52.978,211.679 51.748,208.833 51.098 C 205.461 50.328,204.671 50.102,203.697 49.625 C 201.510 48.555,200.440 46.398,201.109 44.405 C 202.137 41.338,205.873 39.670,211.723 39.665 C 218.519 39.660,219.985 38.438,221.916 31.167 C 222.075 30.571,222.264 29.896,222.337 29.667 C 222.410 29.438,222.636 28.688,222.840 28.000 C 223.043 27.313,223.342 26.375,223.503 25.917 C 223.665 25.458,224.072 24.221,224.407 23.167 C 225.057 21.125,225.697 19.337,226.168 18.250 C 227.530 15.109,228.693 12.759,229.358 11.808 C 229.528 11.564,229.671 11.302,229.676 11.224 C 229.702 10.842,231.744 8.458,232.934 7.422 C 233.675 6.777,234.933 5.674,235.730 4.970 C 238.348 2.659,240.229 2.142,243.750 2.764 M18.442 16.681 C 16.595 16.976,15.526 18.204,13.980 21.810 C 13.612 22.668,12.847 24.282,12.280 25.396 C 11.068 27.780,10.577 28.890,9.539 31.583 C 9.398 31.950,9.031 32.797,8.724 33.465 C 8.418 34.133,8.167 34.774,8.167 34.890 C 8.167 35.005,8.099 35.171,8.016 35.258 C 7.934 35.345,7.440 36.504,6.919 37.833 C 6.398 39.162,5.905 40.400,5.824 40.583 C 5.675 40.919,5.585 41.173,4.649 43.917 C 4.103 45.519,3.410 47.371,3.152 47.917 C 2.880 48.494,0.824 54.526,0.454 55.833 C -0.064 57.664,-0.061 61.370,0.460 62.616 C 1.698 65.580,4.807 67.053,7.610 66.004 C 10.650 64.867,12.023 63.390,14.307 58.803 C 15.789 55.827,18.458 51.096,18.802 50.837 C 18.865 50.789,19.142 50.413,19.417 50.000 C 20.060 49.035,23.446 45.539,24.033 45.234 C 26.072 44.176,26.348 46.488,24.743 51.167 C 24.508 51.854,24.254 52.652,24.179 52.939 C 24.105 53.226,23.994 53.542,23.932 53.642 C 23.781 53.886,23.246 56.155,23.018 57.519 C 21.463 66.810,31.232 70.421,36.619 62.547 C 36.966 62.040,37.475 61.305,37.750 60.914 C 38.025 60.524,38.397 59.990,38.576 59.727 C 39.005 59.100,41.541 55.774,41.671 55.667 C 41.727 55.621,42.077 55.169,42.448 54.662 C 45.066 51.087,45.723 51.904,44.465 57.167 C 43.189 62.501,44.221 65.346,47.852 66.506 C 52.043 67.845,57.761 63.940,59.200 58.756 C 59.567 57.432,59.638 54.554,59.341 53.019 C 58.906 50.775,59.404 48.259,61.341 42.917 C 63.331 37.427,62.978 32.128,60.448 29.533 C 58.347 27.378,54.560 26.726,51.583 28.008 C 51.400 28.087,50.950 28.271,50.583 28.417 C 50.217 28.563,48.944 29.220,47.756 29.877 C 44.360 31.757,43.586 31.638,42.176 29.017 C 40.684 26.246,39.010 25.167,36.203 25.167 C 33.925 25.167,32.873 25.538,29.236 27.629 C 26.315 29.308,25.501 28.766,25.498 25.141 C 25.493 19.360,22.692 16.003,18.442 16.681 M20.804 19.687 C 22.450 20.670,22.705 21.453,22.835 25.917 C 22.944 29.653,23.017 30.087,23.697 31.043 C 24.839 32.646,26.756 32.416,29.854 30.301 C 34.263 27.293,37.498 26.922,39.211 29.227 C 39.573 29.715,40.833 32.189,40.833 32.414 C 40.833 32.652,42.080 33.833,42.583 34.072 C 43.968 34.729,45.259 34.340,48.917 32.161 C 49.897 31.577,52.000 30.493,52.000 30.571 C 52.000 30.615,52.319 30.506,52.708 30.329 C 53.819 29.825,56.086 29.869,57.165 30.416 C 60.638 32.176,60.962 36.030,58.316 44.083 C 57.773 45.733,57.219 47.421,57.083 47.833 C 56.681 49.058,56.606 50.837,56.839 53.584 C 57.274 58.709,55.415 62.531,51.974 63.588 C 51.759 63.653,51.478 63.792,51.349 63.895 C 51.221 63.999,50.546 64.083,49.849 64.083 C 46.583 64.083,45.649 61.006,47.482 56.287 C 47.581 56.033,47.694 55.648,47.733 55.431 C 47.772 55.215,47.919 54.635,48.059 54.144 C 50.238 46.509,46.422 43.796,42.232 50.000 C 41.768 50.688,40.768 52.177,40.011 53.309 C 39.253 54.442,38.534 55.492,38.412 55.643 C 37.703 56.521,36.437 58.279,35.575 59.583 C 32.890 63.644,30.292 65.073,27.833 63.840 C 25.032 62.435,24.682 59.360,26.667 53.583 C 29.598 45.051,29.417 41.167,26.088 41.167 C 24.142 41.167,22.260 42.593,18.891 46.619 C 16.253 49.772,15.075 51.654,12.393 57.000 C 9.853 62.060,8.408 63.500,5.865 63.500 C 1.552 63.500,1.476 59.385,5.593 48.667 C 6.343 46.715,6.565 46.108,6.999 44.833 C 7.671 42.856,7.985 41.971,8.154 41.583 C 8.234 41.400,8.538 40.612,8.831 39.833 C 9.123 39.054,9.461 38.192,9.582 37.917 C 9.973 37.027,10.318 36.164,10.334 36.039 C 10.343 35.972,10.444 35.767,10.558 35.583 C 10.673 35.400,11.051 34.537,11.397 33.667 C 11.744 32.796,12.093 31.933,12.173 31.750 C 12.253 31.567,12.515 30.929,12.754 30.333 C 12.994 29.738,13.844 27.938,14.644 26.333 C 15.443 24.729,16.317 22.892,16.585 22.250 C 17.619 19.774,19.269 18.771,20.804 19.687 M80.748 25.057 C 78.325 25.958,76.906 27.478,75.203 31.000 C 73.760 33.983,72.897 36.357,71.415 41.417 C 70.929 43.074,70.507 44.442,70.077 45.750 C 67.156 54.640,68.649 65.060,73.326 68.417 C 73.709 68.692,74.111 68.996,74.219 69.093 C 75.849 70.546,79.494 71.267,82.333 70.698 C 86.019 69.960,87.322 69.459,91.883 67.026 C 94.217 65.782,95.659 66.200,96.812 68.457 C 98.472 71.709,101.511 73.512,105.302 73.494 C 109.224 73.476,112.073 71.513,114.235 67.341 C 115.674 64.562,116.125 64.345,117.766 65.637 C 120.620 67.886,123.392 68.273,126.158 66.809 C 127.671 66.009,130.397 62.779,131.625 60.333 C 131.740 60.104,132.005 59.617,132.215 59.250 C 132.425 58.883,132.744 58.325,132.923 58.009 C 137.294 50.327,139.868 50.938,138.148 59.250 C 136.819 65.673,137.788 69.219,141.215 70.479 C 145.289 71.976,149.252 69.105,150.759 63.564 C 152.314 57.847,152.382 57.283,152.251 51.175 C 152.142 46.074,151.886 43.103,151.429 41.629 C 149.654 35.901,143.297 32.877,136.829 34.682 C 134.233 35.407,133.815 35.221,132.610 32.796 C 131.196 29.952,129.073 28.843,125.938 29.309 C 120.302 30.147,116.285 37.105,115.917 46.667 C 115.814 49.347,115.702 51.193,115.471 54.074 C 115.191 57.557,114.847 57.950,112.703 57.237 C 111.852 56.955,110.016 56.929,108.832 57.182 C 106.639 57.653,106.161 56.546,106.752 52.364 C 107.243 48.885,107.509 46.898,107.669 45.500 C 107.823 44.165,108.078 42.491,108.508 40.000 C 109.135 36.367,107.187 33.605,103.995 33.605 C 101.741 33.605,100.136 34.815,98.607 37.667 C 98.346 38.153,97.111 40.037,95.875 41.833 C 95.531 42.333,92.086 46.943,91.702 47.417 C 91.553 47.600,91.049 48.245,90.582 48.850 C 88.532 51.502,85.582 54.412,84.662 54.688 C 82.958 55.198,82.213 53.463,82.826 50.415 C 83.155 48.778,83.522 47.160,83.866 45.833 C 84.044 45.146,84.306 44.133,84.448 43.583 C 85.002 41.438,85.667 39.205,85.943 38.558 C 86.066 38.269,86.167 37.987,86.167 37.931 C 86.167 37.790,87.377 34.755,87.801 33.833 C 89.573 29.977,89.650 28.009,88.098 26.236 C 86.709 24.649,83.309 24.104,80.748 25.057 M383.050 25.068 C 379.161 26.513,375.935 29.737,373.587 34.524 C 370.941 39.918,371.014 41.718,374.075 46.583 C 374.825 47.775,375.696 49.200,376.011 49.750 C 376.326 50.300,376.674 50.900,376.784 51.083 C 377.754 52.694,378.347 54.249,378.300 55.062 L 378.250 55.917 377.476 55.967 C 376.930 56.002,376.389 55.887,375.642 55.578 C 370.635 53.501,367.149 54.220,365.857 57.596 C 364.808 60.337,365.727 62.863,368.604 65.149 C 369.326 65.722,370.029 66.281,370.167 66.390 C 370.997 67.051,373.272 68.247,374.750 68.800 C 379.138 70.442,386.680 69.423,390.250 66.706 C 392.601 64.916,393.188 61.829,391.652 59.333 C 391.567 59.196,391.447 58.971,391.385 58.833 C 391.323 58.696,390.629 57.598,389.844 56.394 C 388.184 53.849,387.220 52.326,386.746 51.503 C 386.561 51.180,386.125 50.478,385.779 49.942 C 383.855 46.962,383.270 45.217,383.259 42.417 C 383.239 37.585,384.647 36.882,389.076 39.513 C 391.890 41.185,392.546 41.411,394.583 41.410 C 399.531 41.408,401.456 37.011,398.634 32.155 C 398.284 31.553,397.866 30.916,397.704 30.739 C 397.543 30.562,397.037 29.937,396.580 29.352 C 395.343 27.765,393.462 26.406,391.250 25.500 C 389.019 24.586,384.926 24.371,383.050 25.068 M349.917 25.942 C 346.911 26.811,344.902 28.526,342.746 32.064 C 342.473 32.512,342.137 33.052,342.000 33.264 C 339.531 37.070,337.049 42.422,335.938 46.333 C 334.800 50.340,335.474 57.483,337.370 61.500 C 341.114 69.432,344.465 72.082,351.705 72.836 C 357.723 73.462,361.425 70.494,360.051 66.144 C 359.304 63.778,358.149 62.930,354.526 62.083 C 351.643 61.410,350.563 60.925,349.488 59.821 C 348.379 58.682,348.206 57.243,349.047 56.154 C 349.283 55.848,350.935 54.667,351.126 54.667 C 351.197 54.667,351.516 54.528,351.836 54.357 C 352.155 54.187,353.167 53.802,354.083 53.501 C 362.472 50.750,365.976 45.369,363.737 38.675 C 360.884 30.144,358.868 27.223,354.999 26.010 C 353.701 25.603,351.205 25.570,349.917 25.942 M84.886 27.408 C 86.661 28.041,86.890 29.748,85.579 32.583 C 85.325 33.133,85.095 33.658,85.069 33.750 C 84.960 34.127,84.207 35.849,84.107 35.948 C 84.048 36.007,84.000 36.216,84.000 36.411 C 84.000 36.607,83.934 36.838,83.854 36.925 C 83.543 37.263,81.959 42.778,81.080 46.583 C 80.932 47.225,80.736 48.036,80.646 48.385 C 78.350 57.214,82.250 61.044,87.977 55.583 C 89.498 54.133,92.224 51.035,93.250 49.590 C 93.525 49.203,93.950 48.631,94.196 48.318 C 96.844 44.941,98.919 42.010,101.053 38.631 C 103.817 34.255,106.620 36.387,105.593 42.083 C 105.461 42.817,105.233 44.392,105.087 45.583 C 104.447 50.804,104.291 52.003,104.070 53.417 C 103.054 59.920,104.661 62.508,108.571 60.664 C 112.513 58.806,114.054 61.677,111.704 66.500 C 108.923 72.205,101.798 72.516,99.000 67.055 C 97.429 63.989,96.743 63.414,94.667 63.423 C 93.099 63.430,93.191 63.393,88.417 65.920 C 81.456 69.604,76.135 69.032,73.092 64.275 C 71.523 61.822,71.108 59.643,71.218 54.447 C 71.303 50.418,71.275 50.608,72.250 47.377 C 72.395 46.897,72.618 46.147,72.746 45.710 C 72.874 45.274,73.056 44.692,73.152 44.417 C 73.248 44.142,73.488 43.354,73.685 42.667 C 77.304 30.049,80.413 25.813,84.886 27.408 M389.863 27.724 C 391.719 28.422,392.376 28.840,393.807 30.231 C 397.511 33.832,398.351 37.343,395.788 38.506 C 394.183 39.235,392.493 38.750,389.333 36.654 C 384.835 33.670,381.773 34.759,380.763 39.701 C 379.920 43.825,380.975 47.578,384.456 52.833 C 390.262 61.600,390.485 62.110,389.286 63.917 C 388.895 64.505,387.416 65.665,387.052 65.668 C 386.977 65.668,386.729 65.765,386.500 65.884 C 385.579 66.359,382.696 66.966,380.683 67.109 C 375.363 67.485,368.281 63.262,368.273 59.707 C 368.267 56.796,370.845 56.200,374.784 58.200 C 377.345 59.500,378.499 59.818,379.541 59.511 C 382.631 58.602,382.347 54.476,378.837 49.250 C 378.591 48.883,378.340 48.471,378.279 48.333 C 378.219 48.196,377.722 47.408,377.175 46.583 C 373.720 41.369,373.582 40.238,375.844 35.645 C 379.241 28.748,384.575 25.733,389.863 27.724 M321.250 27.745 C 317.759 28.353,316.029 29.189,312.250 32.095 C 304.288 38.218,302.845 43.387,307.232 50.067 C 308.438 51.902,309.352 53.570,310.237 55.545 C 311.400 58.140,310.118 59.273,307.712 57.777 C 307.183 57.448,305.962 56.784,305.000 56.301 L 303.250 55.424 301.167 55.420 C 297.174 55.413,294.381 57.787,293.335 62.076 C 292.933 63.724,293.030 64.065,294.237 65.250 C 295.834 66.819,297.367 67.492,300.833 68.149 C 301.887 68.349,303.275 68.620,303.917 68.753 C 304.558 68.885,305.683 69.115,306.417 69.263 C 307.150 69.411,308.237 69.635,308.833 69.759 C 312.543 70.536,315.013 70.440,316.897 69.447 C 317.897 68.920,319.333 67.637,319.333 67.270 C 319.333 67.158,319.422 66.978,319.531 66.869 C 320.281 66.119,320.533 63.165,320.080 60.441 C 319.339 55.980,318.935 54.614,316.919 49.750 C 315.415 46.120,315.235 44.812,315.958 42.754 C 316.393 41.517,317.944 40.008,319.294 39.510 C 320.623 39.019,321.157 39.099,323.380 40.124 L 325.083 40.909 327.000 40.910 C 333.163 40.913,335.286 34.417,330.621 29.829 C 328.633 27.874,325.066 27.080,321.250 27.745 M353.750 28.404 C 357.105 29.162,359.242 32.430,361.561 40.348 C 362.897 44.913,359.827 48.916,353.333 51.074 C 347.726 52.938,345.739 54.647,345.761 57.583 C 345.787 60.885,347.934 62.978,352.583 64.231 C 356.095 65.177,356.626 65.441,357.170 66.507 C 358.505 69.124,355.750 70.955,351.489 70.283 C 348.409 69.796,347.027 69.345,345.333 68.270 C 344.058 67.461,341.667 64.704,341.667 64.043 C 341.667 63.988,341.562 63.825,341.433 63.680 C 341.160 63.373,339.903 60.956,339.389 59.750 C 338.057 56.627,337.453 50.848,338.152 47.917 C 338.767 45.341,340.793 40.289,341.996 38.333 C 342.080 38.196,342.744 37.071,343.470 35.833 C 347.328 29.260,349.760 27.503,353.750 28.404 M265.905 29.137 C 264.022 29.558,260.336 31.414,259.417 32.404 C 259.325 32.503,258.612 33.122,257.833 33.780 C 255.147 36.050,252.316 39.207,250.816 41.608 C 250.321 42.398,249.536 43.617,249.072 44.314 C 248.607 45.012,248.003 45.921,247.729 46.333 C 247.266 47.030,246.844 48.180,246.587 49.443 C 246.528 49.732,246.179 50.745,245.812 51.693 C 244.455 55.192,244.154 57.862,244.819 60.500 C 246.329 66.487,250.177 69.963,256.344 70.912 C 256.949 71.005,259.904 70.532,261.417 70.100 C 262.248 69.863,263.338 69.557,264.917 69.117 C 265.375 68.990,265.994 68.759,266.292 68.605 C 266.590 68.451,266.833 68.368,266.833 68.422 C 266.833 68.475,267.040 68.405,267.292 68.267 C 267.544 68.128,268.162 67.817,268.667 67.575 C 270.149 66.863,270.519 66.651,271.664 65.860 C 276.248 62.692,276.277 62.694,279.667 66.474 C 283.082 70.282,287.638 70.171,288.923 66.248 C 289.491 64.514,289.383 63.274,288.553 61.992 C 285.301 56.977,285.004 50.083,287.608 40.100 C 289.169 34.115,285.393 30.465,278.982 31.764 C 277.509 32.062,276.626 31.909,275.164 31.100 C 271.458 29.052,268.806 28.490,265.905 29.137 M326.867 30.486 C 330.467 31.869,331.675 36.359,328.858 37.886 C 327.355 38.700,326.160 38.598,323.917 37.465 C 321.219 36.103,320.220 36.102,317.501 37.460 C 313.037 39.689,311.819 44.318,314.180 50.083 C 314.292 50.358,314.407 50.658,314.434 50.750 C 314.461 50.842,314.776 51.629,315.134 52.500 C 315.927 54.432,316.552 56.554,317.413 60.233 C 318.685 65.663,316.189 68.561,311.083 67.583 C 310.258 67.425,309.384 67.277,309.140 67.253 C 308.897 67.229,308.147 67.083,307.474 66.928 C 304.671 66.281,304.175 66.178,302.583 65.911 C 296.919 64.962,295.339 63.455,296.879 60.473 C 298.496 57.339,301.887 57.057,305.792 59.732 C 308.168 61.359,309.966 62.093,311.065 61.884 C 314.309 61.267,314.825 57.749,312.302 53.451 C 312.044 53.012,311.833 52.623,311.833 52.587 C 311.833 52.472,310.804 50.802,309.533 48.855 C 306.457 44.141,306.535 41.838,309.910 37.834 C 312.071 35.269,316.437 31.898,318.672 31.068 C 321.704 29.942,324.865 29.718,326.867 30.486 M271.211 32.001 C 271.730 32.183,272.736 32.675,273.445 33.095 C 275.967 34.586,276.937 34.803,279.177 34.380 C 284.390 33.396,286.249 35.475,284.873 40.750 C 283.046 47.749,282.935 55.531,284.596 60.087 C 286.095 64.197,286.206 64.699,285.809 65.571 C 285.266 66.762,281.842 65.962,281.306 64.519 C 281.275 64.436,280.951 64.004,280.586 63.559 C 277.258 59.508,275.687 59.543,270.250 63.791 C 270.158 63.863,269.633 64.183,269.083 64.504 C 267.339 65.519,265.806 66.176,263.833 66.753 C 261.133 67.544,260.446 67.735,259.281 68.017 C 255.917 68.834,252.968 67.951,250.317 65.333 C 246.825 61.884,246.122 57.483,248.296 52.667 C 248.756 51.647,249.338 50.333,249.662 49.583 C 252.080 43.992,253.618 41.576,256.917 38.185 C 262.615 32.330,266.888 30.481,271.211 32.001 M128.256 32.054 C 129.454 32.518,130.015 33.284,130.658 35.332 C 131.642 38.473,133.027 39.092,136.083 37.757 C 142.300 35.043,148.027 37.675,149.330 43.844 C 150.145 47.708,149.740 58.844,148.687 61.527 C 148.602 61.741,148.403 62.404,148.243 63.000 C 146.228 70.512,138.835 69.659,140.236 62.076 C 140.387 61.255,140.619 60.021,140.751 59.333 C 140.883 58.646,141.030 57.708,141.076 57.250 C 141.123 56.792,141.248 55.717,141.353 54.861 C 142.462 45.859,137.404 45.932,131.750 55.000 C 131.093 56.054,130.890 56.403,130.247 57.583 C 128.541 60.713,127.130 62.744,125.975 63.733 C 123.137 66.162,119.835 65.145,118.452 61.417 C 117.934 60.018,118.057 49.415,118.652 44.250 C 119.598 36.036,124.023 30.417,128.256 32.054 M349.417 39.197 C 347.482 39.739,347.046 42.484,348.812 43.013 C 350.720 43.585,352.420 40.993,351.004 39.671 C 350.406 39.112,350.075 39.013,349.417 39.197 M263.727 39.650 C 260.951 40.445,258.438 44.458,256.726 50.833 C 254.454 59.295,258.381 63.471,264.417 59.011 C 269.222 55.461,272.833 50.256,272.833 46.882 C 272.833 44.357,270.270 40.167,268.725 40.167 C 268.675 40.167,268.397 40.060,268.109 39.929 C 266.740 39.311,265.244 39.216,263.727 39.650 M267.375 42.473 C 269.728 43.543,270.821 46.760,269.677 49.250 C 268.201 52.464,262.994 57.498,260.849 57.786 C 257.939 58.176,257.848 54.859,260.567 47.417 C 260.833 46.686,261.817 44.682,262.039 44.417 C 262.116 44.325,262.352 44.007,262.563 43.711 C 263.705 42.112,265.542 41.640,267.375 42.473 M155.417 74.892 C 151.928 76.041,150.303 79.597,151.003 84.551 C 152.189 92.950,153.852 96.212,160.025 102.253 C 163.012 105.176,163.884 105.866,165.917 106.917 C 171.083 109.590,176.975 110.154,182.417 108.495 C 184.060 107.994,186.949 107.228,188.333 106.927 C 189.850 106.596,191.229 106.205,191.964 105.896 C 192.265 105.770,192.585 105.667,192.675 105.667 C 192.765 105.667,193.559 105.330,194.439 104.919 C 198.866 102.850,201.846 99.728,204.223 94.667 C 204.288 94.529,204.757 93.667,205.265 92.750 C 206.284 90.913,208.899 85.610,209.046 85.083 C 209.097 84.900,209.299 84.337,209.494 83.833 C 212.592 75.851,204.156 71.292,200.088 78.750 C 198.072 82.444,195.532 85.341,192.583 87.304 C 184.174 92.904,173.643 91.964,166.645 84.989 C 164.811 83.161,164.224 82.294,162.477 78.833 C 161.024 75.953,157.748 74.125,155.417 74.892 M158.090 77.854 C 159.074 78.317,159.745 79.125,160.726 81.027 C 162.565 84.596,164.306 86.753,166.917 88.693 C 167.959 89.468,169.463 90.417,170.066 90.680 C 170.259 90.764,170.529 90.903,170.667 90.989 C 176.518 94.661,187.142 94.043,193.770 89.645 C 196.480 87.846,201.333 82.763,201.333 81.722 C 201.333 81.514,202.602 79.550,203.069 79.035 C 205.466 76.390,208.271 78.333,207.348 82.000 C 207.070 83.108,206.847 83.752,206.340 84.917 C 206.146 85.362,203.347 91.015,203.163 91.333 C 202.740 92.063,201.620 94.097,200.914 95.417 C 199.227 98.567,196.595 101.319,194.708 101.906 C 194.502 101.970,194.333 102.092,194.333 102.178 C 194.333 102.263,194.254 102.333,194.156 102.333 C 194.058 102.333,193.552 102.531,193.031 102.772 C 191.887 103.301,188.871 104.301,187.833 104.495 C 186.064 104.826,184.525 105.219,181.583 106.091 C 177.558 107.283,174.137 107.246,170.288 105.967 C 166.479 104.702,165.232 103.850,161.148 99.720 C 156.013 94.527,154.763 92.103,153.588 85.059 C 152.700 79.743,154.836 76.325,158.090 77.854 " stroke="none" fill="#1a53b4" fill-rule="evenodd"></path></g></svg>