<svg id="svg" version="1.1" width="400" height="109.5873015873016" viewBox="0 0 400 109.5873015873016" xmlns="http://www.w3.org/2000/svg" xmlns:xlink="http://www.w3.org/1999/xlink" ><g id="svgg"><path id="path0" d="M239.500 2.767 C 238.041 3.158,237.278 3.603,235.730 4.970 C 234.933 5.674,233.675 6.777,232.934 7.422 C 231.744 8.458,229.702 10.842,229.676 11.224 C 229.671 11.302,229.528 11.564,229.358 11.808 C 228.693 12.759,227.530 15.109,226.168 18.250 C 225.697 19.337,225.057 21.125,224.407 23.167 C 224.072 24.221,223.665 25.458,223.503 25.917 C 223.342 26.375,223.043 27.313,222.840 28.000 C 222.636 28.688,222.410 29.438,222.337 29.667 C 222.264 29.896,222.075 30.571,221.916 31.167 C 219.985 38.438,218.519 39.660,211.723 39.665 C 205.873 39.670,202.137 41.338,201.109 44.405 C 200.440 46.398,201.510 48.555,203.697 49.625 C 204.671 50.102,205.461 50.328,208.833 51.098 C 211.679 51.748,212.876 52.978,212.875 55.250 C 212.874 56.170,212.749 56.749,212.045 59.083 C 210.744 63.400,210.884 65.199,212.632 66.632 C 213.853 67.633,216.782 67.559,217.833 66.500 C 217.879 66.454,218.225 66.207,218.601 65.952 C 220.206 64.864,220.760 63.614,221.940 58.417 C 223.304 52.407,225.218 50.528,230.250 50.258 C 235.755 49.962,239.092 49.263,240.047 48.207 C 240.758 47.421,240.671 46.007,239.873 45.395 C 238.981 44.711,236.715 43.884,233.750 43.160 C 231.160 42.528,229.962 41.626,229.419 39.902 C 228.980 38.504,229.142 37.461,230.662 31.917 C 231.211 29.914,231.748 27.741,232.063 26.250 C 232.762 22.935,234.918 16.729,235.738 15.667 C 235.844 15.529,236.040 15.197,236.174 14.930 C 236.307 14.662,237.017 13.833,237.750 13.088 C 242.621 8.140,247.544 10.102,252.312 18.892 C 254.064 22.123,255.859 23.236,257.515 22.120 C 259.272 20.936,258.857 19.011,255.794 14.151 C 255.020 12.922,253.928 11.092,253.367 10.083 C 250.219 4.416,244.538 1.419,239.500 2.767 M18.719 19.513 C 18.130 19.731,17.068 21.093,16.585 22.250 C 16.317 22.892,15.443 24.729,14.644 26.333 C 13.844 27.938,12.994 29.738,12.754 30.333 C 12.515 30.929,12.253 31.567,12.173 31.750 C 12.093 31.933,11.744 32.796,11.397 33.667 C 11.051 34.537,10.673 35.400,10.558 35.583 C 10.444 35.767,10.343 35.972,10.334 36.039 C 10.318 36.164,9.973 37.027,9.582 37.917 C 9.461 38.192,9.123 39.054,8.831 39.833 C 8.538 40.612,8.234 41.400,8.154 41.583 C 7.985 41.971,7.671 42.856,6.999 44.833 C 6.565 46.108,6.343 46.715,5.593 48.667 C 1.476 59.385,1.552 63.500,5.865 63.500 C 8.408 63.500,9.853 62.060,12.393 57.000 C 14.427 52.946,14.839 52.210,16.289 50.042 C 19.871 44.684,23.754 41.167,26.088 41.167 C 29.417 41.167,29.598 45.051,26.667 53.583 C 24.682 59.360,25.032 62.435,27.833 63.840 C 30.292 65.073,32.890 63.644,35.575 59.583 C 36.437 58.279,37.703 56.521,38.412 55.643 C 38.534 55.492,39.253 54.442,40.011 53.309 C 40.768 52.177,41.768 50.688,42.232 50.000 C 46.422 43.796,50.238 46.509,48.059 54.144 C 47.919 54.635,47.772 55.215,47.733 55.431 C 47.694 55.648,47.581 56.033,47.482 56.287 C 45.649 61.006,46.583 64.083,49.849 64.083 C 50.546 64.083,51.221 63.999,51.349 63.895 C 51.478 63.792,51.759 63.653,51.974 63.588 C 55.415 62.531,57.274 58.709,56.839 53.584 C 56.606 50.837,56.681 49.058,57.083 47.833 C 57.219 47.421,57.773 45.733,58.316 44.083 C 60.962 36.030,60.638 32.176,57.165 30.416 C 56.086 29.869,53.819 29.825,52.708 30.329 C 52.319 30.506,52.000 30.615,52.000 30.571 C 52.000 30.493,49.897 31.577,48.917 32.161 C 45.259 34.340,43.968 34.729,42.583 34.072 C 42.080 33.833,40.833 32.652,40.833 32.414 C 40.833 32.189,39.573 29.715,39.211 29.227 C 37.498 26.922,34.263 27.293,29.854 30.301 C 26.756 32.416,24.839 32.646,23.697 31.043 C 23.017 30.087,22.944 29.653,22.835 25.917 C 22.739 22.633,22.691 22.172,22.368 21.500 C 21.525 19.742,20.139 18.988,18.719 19.513 M82.167 27.332 C 79.022 28.018,76.663 32.284,73.685 42.667 C 73.488 43.354,73.248 44.142,73.152 44.417 C 73.056 44.692,72.874 45.274,72.746 45.710 C 72.618 46.147,72.395 46.897,72.250 47.377 C 71.275 50.608,71.303 50.418,71.218 54.447 C 70.947 67.210,77.597 71.646,88.417 65.920 C 93.191 63.393,93.099 63.430,94.667 63.423 C 96.743 63.414,97.429 63.989,99.000 67.055 C 101.798 72.516,108.923 72.205,111.704 66.500 C 114.054 61.677,112.513 58.806,108.571 60.664 C 104.661 62.508,103.054 59.920,104.070 53.417 C 104.291 52.003,104.447 50.804,105.087 45.583 C 105.233 44.392,105.461 42.817,105.593 42.083 C 106.620 36.387,103.817 34.255,101.053 38.631 C 98.919 42.010,96.844 44.941,94.196 48.318 C 93.950 48.631,93.525 49.203,93.250 49.590 C 92.224 51.035,89.498 54.133,87.977 55.583 C 82.250 61.044,78.350 57.214,80.646 48.385 C 80.736 48.036,80.932 47.225,81.080 46.583 C 81.959 42.778,83.543 37.263,83.854 36.925 C 83.934 36.838,84.000 36.607,84.000 36.411 C 84.000 36.216,84.048 36.007,84.107 35.948 C 84.207 35.849,84.960 34.127,85.069 33.750 C 85.095 33.658,85.325 33.133,85.579 32.583 C 87.387 28.672,85.977 26.501,82.167 27.332 M384.479 27.311 C 383.056 27.616,380.426 29.321,378.940 30.900 C 376.796 33.180,374.582 37.636,374.378 40.083 C 374.234 41.820,374.633 42.747,377.175 46.583 C 377.722 47.408,378.219 48.196,378.279 48.333 C 378.340 48.471,378.591 48.883,378.837 49.250 C 382.347 54.476,382.631 58.602,379.541 59.511 C 378.499 59.818,377.345 59.500,374.784 58.200 C 371.621 56.594,369.812 56.599,368.604 58.217 C 366.132 61.528,374.325 67.559,380.683 67.109 C 382.696 66.966,385.579 66.359,386.500 65.884 C 386.729 65.765,386.977 65.668,387.052 65.668 C 387.416 65.665,388.895 64.505,389.286 63.917 C 390.485 62.110,390.262 61.600,384.456 52.833 C 380.975 47.578,379.920 43.825,380.763 39.701 C 381.773 34.759,384.835 33.670,389.333 36.654 C 392.493 38.750,394.183 39.235,395.788 38.506 C 398.351 37.343,397.511 33.832,393.807 30.231 C 391.303 27.797,387.608 26.640,384.479 27.311 M350.833 28.410 C 348.034 29.048,346.611 30.482,343.470 35.833 C 342.744 37.071,342.080 38.196,341.996 38.333 C 337.152 46.208,336.618 54.497,340.472 62.000 C 340.872 62.779,341.305 63.535,341.433 63.680 C 341.562 63.825,341.667 63.988,341.667 64.043 C 341.667 64.704,344.058 67.461,345.333 68.270 C 347.027 69.345,348.409 69.796,351.489 70.283 C 355.750 70.955,358.505 69.124,357.170 66.507 C 356.626 65.441,356.095 65.177,352.583 64.231 C 347.934 62.978,345.787 60.885,345.761 57.583 C 345.739 54.647,347.726 52.938,353.333 51.074 C 355.603 50.320,356.605 49.816,358.185 48.635 C 361.455 46.191,362.512 43.597,361.561 40.348 C 358.713 30.622,355.723 27.296,350.833 28.410 M320.917 30.396 C 317.766 31.225,316.041 32.220,312.427 35.292 C 306.749 40.118,306.030 43.487,309.533 48.855 C 310.804 50.802,311.833 52.472,311.833 52.587 C 311.833 52.623,312.044 53.012,312.302 53.451 C 314.825 57.749,314.309 61.267,311.065 61.884 C 309.966 62.093,308.168 61.359,305.792 59.732 C 301.887 57.057,298.496 57.339,296.879 60.473 C 295.339 63.455,296.919 64.962,302.583 65.911 C 304.175 66.178,304.671 66.281,307.474 66.928 C 308.147 67.083,308.897 67.229,309.140 67.253 C 309.384 67.277,310.258 67.425,311.083 67.583 C 316.189 68.561,318.685 65.663,317.413 60.233 C 316.552 56.554,315.927 54.432,315.134 52.500 C 314.776 51.629,314.461 50.842,314.434 50.750 C 314.407 50.658,314.292 50.358,314.180 50.083 C 311.819 44.318,313.037 39.689,317.501 37.460 C 320.220 36.102,321.219 36.103,323.917 37.465 C 327.539 39.295,330.615 38.118,330.433 34.972 C 330.218 31.247,325.784 29.116,320.917 30.396 M266.333 31.679 C 263.968 32.097,260.529 34.474,256.917 38.185 C 253.618 41.576,252.080 43.992,249.662 49.583 C 249.338 50.333,248.756 51.647,248.296 52.667 C 246.122 57.483,246.825 61.884,250.317 65.333 C 252.968 67.951,255.917 68.834,259.281 68.017 C 260.446 67.735,261.133 67.544,263.833 66.753 C 265.806 66.176,267.339 65.519,269.083 64.504 C 269.633 64.183,270.158 63.863,270.250 63.791 C 275.687 59.543,277.258 59.508,280.586 63.559 C 280.951 64.004,281.275 64.436,281.306 64.519 C 281.842 65.962,285.266 66.762,285.809 65.571 C 286.206 64.699,286.095 64.197,284.596 60.087 C 282.935 55.531,283.046 47.749,284.873 40.750 C 286.249 35.475,284.390 33.396,279.177 34.380 C 276.937 34.803,275.967 34.586,273.445 33.095 C 271.145 31.735,268.733 31.255,266.333 31.679 M125.373 32.090 C 120.307 33.684,118.199 40.449,118.158 55.248 C 118.141 61.478,118.337 62.391,120.024 63.950 C 123.080 66.775,126.346 64.741,130.247 57.583 C 132.638 53.195,135.629 49.432,137.452 48.519 C 140.362 47.059,141.988 49.703,141.353 54.861 C 141.248 55.717,141.123 56.792,141.076 57.250 C 141.030 57.708,140.883 58.646,140.751 59.333 C 140.619 60.021,140.387 61.255,140.236 62.076 C 138.835 69.659,146.228 70.512,148.243 63.000 C 148.403 62.404,148.602 61.741,148.687 61.527 C 149.740 58.844,150.145 47.708,149.330 43.844 C 148.027 37.675,142.300 35.043,136.083 37.757 C 133.027 39.092,131.642 38.473,130.658 35.332 C 129.691 32.249,128.056 31.246,125.373 32.090 M351.004 39.671 C 352.420 40.993,350.720 43.585,348.812 43.013 C 347.046 42.484,347.482 39.739,349.417 39.197 C 350.075 39.013,350.406 39.112,351.004 39.671 M266.700 39.513 C 267.186 39.611,267.820 39.799,268.109 39.929 C 268.397 40.060,268.675 40.167,268.725 40.167 C 270.270 40.167,272.833 44.357,272.833 46.882 C 272.833 52.073,263.861 61.509,259.671 60.724 C 254.944 59.839,254.762 53.552,259.197 44.333 C 261.091 40.396,263.483 38.860,266.700 39.513 M155.649 77.722 C 152.108 79.311,152.900 88.658,157.127 95.167 C 158.208 96.831,163.624 102.417,165.300 103.596 C 169.873 106.812,175.988 107.749,181.583 106.091 C 184.525 105.219,186.064 104.826,187.833 104.495 C 188.871 104.301,191.887 103.301,193.031 102.772 C 193.552 102.531,194.058 102.333,194.156 102.333 C 194.254 102.333,194.333 102.263,194.333 102.178 C 194.333 102.092,194.502 101.970,194.708 101.906 C 196.595 101.319,199.227 98.567,200.914 95.417 C 201.620 94.097,202.740 92.063,203.163 91.333 C 203.347 91.015,206.146 85.362,206.340 84.917 C 207.633 81.947,207.869 80.472,207.251 79.231 C 206.364 77.450,204.580 77.367,203.069 79.035 C 202.602 79.550,201.333 81.514,201.333 81.722 C 201.333 82.763,196.480 87.846,193.770 89.645 C 187.142 94.043,176.518 94.661,170.667 90.989 C 170.529 90.903,170.259 90.764,170.066 90.680 C 169.463 90.417,167.959 89.468,166.917 88.693 C 164.306 86.753,162.565 84.596,160.726 81.027 C 159.186 78.039,157.454 76.912,155.649 77.722 " stroke="none" fill="#ff9790" fill-rule="evenodd"></path><path id="path1" d="M239.015 0.261 C 238.336 0.385,237.702 0.565,237.607 0.660 C 237.511 0.755,237.304 0.833,237.145 0.833 C 236.987 0.833,236.758 0.927,236.637 1.042 C 236.516 1.156,236.198 1.363,235.930 1.500 C 235.662 1.637,234.756 2.387,233.916 3.167 C 233.076 3.946,231.741 5.168,230.948 5.883 C 228.476 8.113,226.826 10.609,224.758 15.250 C 224.513 15.800,224.250 16.368,224.174 16.512 C 223.717 17.371,222.404 21.057,221.328 24.500 C 220.856 26.012,220.373 27.550,220.256 27.917 C 220.024 28.646,219.608 30.069,219.208 31.500 C 217.942 36.039,217.048 36.860,213.167 37.047 C 209.882 37.206,206.974 37.517,205.513 37.865 C 204.229 38.171,203.910 38.283,203.167 38.688 C 203.029 38.763,202.669 38.949,202.365 39.102 C 200.744 39.921,198.935 42.280,198.419 44.250 C 197.833 46.488,199.000 49.430,201.105 51.024 C 201.966 51.675,202.503 51.956,203.942 52.507 C 204.139 52.583,205.151 52.843,206.192 53.086 C 208.775 53.688,208.628 53.633,209.338 54.274 C 210.255 55.103,210.328 56.721,209.536 58.667 C 208.586 61.002,208.369 64.714,209.091 66.275 C 209.224 66.564,209.333 66.844,209.333 66.898 C 209.333 67.947,212.304 69.823,214.173 69.954 C 219.205 70.308,222.714 66.902,224.086 60.333 C 225.494 53.588,226.083 53.089,233.333 52.499 C 240.504 51.916,244.000 50.341,244.000 47.692 C 244.000 46.409,243.206 44.542,242.312 43.721 C 241.731 43.187,238.529 41.710,237.873 41.673 C 237.805 41.669,237.412 41.562,237.000 41.436 C 236.588 41.310,235.762 41.072,235.167 40.907 C 231.796 39.977,231.225 38.473,232.638 34.250 C 232.787 33.804,233.080 32.670,234.164 28.333 C 234.335 27.646,234.603 26.483,234.758 25.750 C 235.704 21.285,237.776 16.653,239.637 14.845 C 243.181 11.402,245.998 12.869,250.181 20.333 C 252.237 24.002,253.805 25.202,256.543 25.202 C 258.599 25.202,260.769 23.684,261.075 22.032 C 261.380 20.385,261.279 19.109,260.747 17.878 C 260.110 16.405,259.872 15.969,258.513 13.786 C 256.871 11.148,256.257 10.122,255.895 9.417 C 252.332 2.480,245.919 -0.998,239.015 0.261 M243.750 2.764 C 248.144 3.541,250.897 5.636,253.367 10.083 C 253.928 11.092,255.020 12.922,255.794 14.151 C 258.857 19.011,259.272 20.936,257.515 22.120 C 255.859 23.236,254.064 22.123,252.312 18.892 C 247.544 10.102,242.621 8.140,237.750 13.088 C 237.017 13.833,236.307 14.662,236.174 14.930 C 236.040 15.197,235.844 15.529,235.738 15.667 C 234.918 16.729,232.762 22.935,232.063 26.250 C 231.748 27.741,231.211 29.914,230.662 31.917 C 229.142 37.461,228.980 38.504,229.419 39.902 C 229.962 41.626,231.160 42.528,233.750 43.160 C 239.180 44.485,240.995 45.608,240.499 47.337 C 240.001 49.073,237.144 49.887,230.250 50.258 C 225.218 50.528,223.304 52.407,221.940 58.417 C 220.760 63.614,220.206 64.864,218.601 65.952 C 218.225 66.207,217.879 66.454,217.833 66.500 C 216.782 67.559,213.853 67.633,212.632 66.632 C 210.884 65.199,210.744 63.400,212.045 59.083 C 212.749 56.749,212.874 56.170,212.875 55.250 C 212.876 52.978,211.679 51.748,208.833 51.098 C 205.461 50.328,204.671 50.102,203.697 49.625 C 201.510 48.555,200.440 46.398,201.109 44.405 C 202.137 41.338,205.873 39.670,211.723 39.665 C 218.519 39.660,219.985 38.438,221.916 31.167 C 222.075 30.571,222.264 29.896,222.337 29.667 C 222.410 29.438,222.636 28.688,222.840 28.000 C 223.043 27.313,223.342 26.375,223.503 25.917 C 223.665 25.458,224.072 24.221,224.407 23.167 C 225.057 21.125,225.697 19.337,226.168 18.250 C 227.530 15.109,228.693 12.759,229.358 11.808 C 229.528 11.564,229.671 11.302,229.676 11.224 C 229.702 10.842,231.744 8.458,232.934 7.422 C 233.675 6.777,234.933 5.674,235.730 4.970 C 238.348 2.659,240.229 2.142,243.750 2.764 M18.495 16.672 C 16.935 16.927,15.537 18.335,14.522 20.674 C 14.305 21.174,14.023 21.782,13.897 22.026 C 13.770 22.269,13.667 22.534,13.667 22.615 C 13.667 22.695,13.195 23.659,12.618 24.756 C 11.686 26.529,10.255 29.708,9.544 31.583 C 9.405 31.950,9.194 32.475,9.075 32.750 C 8.956 33.025,8.733 33.550,8.579 33.917 C 8.426 34.283,8.159 34.865,7.986 35.208 C 7.813 35.552,7.717 35.833,7.772 35.833 C 7.827 35.833,7.767 36.002,7.639 36.208 C 7.512 36.415,7.233 37.033,7.020 37.583 C 6.806 38.133,6.536 38.808,6.419 39.083 C 6.302 39.358,6.049 40.033,5.857 40.583 C 5.665 41.133,5.312 42.108,5.074 42.750 C 4.836 43.392,4.602 44.067,4.554 44.250 C 4.506 44.433,4.362 44.820,4.233 45.109 C 4.105 45.397,4.000 45.714,4.000 45.811 C 4.000 45.909,3.895 46.235,3.767 46.536 C 3.514 47.130,3.232 47.862,2.658 49.417 C 2.455 49.967,2.225 50.567,2.147 50.750 C 2.069 50.933,1.743 51.908,1.421 52.917 C 1.100 53.925,0.764 54.975,0.674 55.250 C -1.761 62.700,2.784 68.502,8.701 65.496 C 11.076 64.289,12.359 62.741,14.394 58.628 C 17.283 52.790,19.127 49.943,21.892 47.049 C 25.952 42.799,26.937 45.153,24.277 52.750 C 21.793 59.843,22.493 63.844,26.616 66.123 C 30.099 68.048,34.035 66.365,37.250 61.575 C 38.281 60.039,41.737 55.379,42.065 55.083 C 42.167 54.992,42.580 54.482,42.984 53.951 C 45.070 51.207,45.691 52.350,44.562 56.858 C 43.531 60.977,43.868 63.845,45.551 65.271 C 49.773 68.846,57.234 65.297,59.164 58.795 C 59.552 57.488,59.568 55.840,59.232 51.595 C 59.128 50.279,59.269 49.217,59.756 47.667 C 59.885 47.254,60.370 45.754,60.833 44.333 C 62.055 40.586,62.104 40.410,62.423 38.615 C 63.831 30.697,58.177 25.163,51.583 28.005 C 50.199 28.602,48.883 29.245,48.134 29.691 C 44.520 31.840,43.550 31.730,42.140 29.008 C 40.755 26.332,38.918 25.167,36.086 25.167 C 33.966 25.167,33.007 25.511,29.317 27.601 C 26.182 29.376,25.503 28.874,25.376 24.685 C 25.205 19.049,22.589 16.003,18.495 16.672 M20.804 19.687 C 22.450 20.670,22.705 21.453,22.835 25.917 C 22.944 29.653,23.017 30.087,23.697 31.043 C 24.839 32.646,26.756 32.416,29.854 30.301 C 34.263 27.293,37.498 26.922,39.211 29.227 C 39.573 29.715,40.833 32.189,40.833 32.414 C 40.833 32.652,42.080 33.833,42.583 34.072 C 43.968 34.729,45.259 34.340,48.917 32.161 C 49.897 31.577,52.000 30.493,52.000 30.571 C 52.000 30.615,52.319 30.506,52.708 30.329 C 53.819 29.825,56.086 29.869,57.165 30.416 C 60.638 32.176,60.962 36.030,58.316 44.083 C 57.773 45.733,57.219 47.421,57.083 47.833 C 56.681 49.058,56.606 50.837,56.839 53.584 C 57.274 58.709,55.415 62.531,51.974 63.588 C 51.759 63.653,51.478 63.792,51.349 63.895 C 51.221 63.999,50.546 64.083,49.849 64.083 C 46.583 64.083,45.649 61.006,47.482 56.287 C 47.581 56.033,47.694 55.648,47.733 55.431 C 47.772 55.215,47.919 54.635,48.059 54.144 C 50.238 46.509,46.422 43.796,42.232 50.000 C 41.768 50.688,40.768 52.177,40.011 53.309 C 39.253 54.442,38.534 55.492,38.412 55.643 C 37.703 56.521,36.437 58.279,35.575 59.583 C 32.890 63.644,30.292 65.073,27.833 63.840 C 25.032 62.435,24.682 59.360,26.667 53.583 C 29.598 45.051,29.417 41.167,26.088 41.167 C 24.142 41.167,22.260 42.593,18.891 46.619 C 16.253 49.772,15.075 51.654,12.393 57.000 C 9.853 62.060,8.408 63.500,5.865 63.500 C 1.552 63.500,1.476 59.385,5.593 48.667 C 6.343 46.715,6.565 46.108,6.999 44.833 C 7.671 42.856,7.985 41.971,8.154 41.583 C 8.234 41.400,8.538 40.612,8.831 39.833 C 9.123 39.054,9.461 38.192,9.582 37.917 C 9.973 37.027,10.318 36.164,10.334 36.039 C 10.343 35.972,10.444 35.767,10.558 35.583 C 10.673 35.400,11.051 34.537,11.397 33.667 C 11.744 32.796,12.093 31.933,12.173 31.750 C 12.253 31.567,12.515 30.929,12.754 30.333 C 12.994 29.738,13.844 27.938,14.644 26.333 C 15.443 24.729,16.317 22.892,16.585 22.250 C 17.619 19.774,19.269 18.771,20.804 19.687 M80.997 24.979 C 78.132 25.896,76.220 28.257,74.097 33.500 C 73.856 34.096,73.585 34.714,73.496 34.873 C 73.406 35.032,73.333 35.273,73.333 35.409 C 73.333 35.544,73.228 35.902,73.098 36.203 C 72.969 36.504,72.624 37.537,72.332 38.500 C 72.040 39.462,71.704 40.550,71.586 40.917 C 71.467 41.283,71.216 42.108,71.027 42.750 C 70.501 44.538,69.654 47.331,69.383 48.167 C 68.347 51.363,68.426 59.289,69.526 62.583 C 71.021 67.060,74.083 69.892,78.387 70.777 C 81.057 71.327,86.723 69.973,90.000 68.003 C 93.925 65.642,95.325 65.675,96.685 68.159 C 97.424 69.510,97.789 70.035,98.500 70.769 C 99.278 71.572,100.847 72.667,101.220 72.667 C 101.337 72.667,101.505 72.736,101.592 72.822 C 101.884 73.108,104.009 73.500,105.270 73.500 C 109.021 73.500,111.812 71.610,114.061 67.545 C 115.611 64.743,116.031 64.449,117.278 65.292 C 117.651 65.544,118.393 66.043,118.927 66.401 C 123.463 69.441,127.539 67.392,131.828 59.917 C 132.406 58.908,133.017 57.858,133.185 57.583 C 133.354 57.308,133.654 56.783,133.853 56.417 C 135.112 54.093,137.101 52.192,137.942 52.509 C 138.772 52.821,138.877 56.158,138.158 59.417 C 136.623 66.382,138.258 70.431,142.752 70.792 C 146.659 71.106,149.415 68.440,150.893 62.917 C 151.041 62.367,151.307 61.392,151.485 60.750 C 152.256 57.970,152.364 56.620,152.249 51.184 C 152.065 42.484,151.495 40.092,149.024 37.660 C 145.652 34.340,141.670 33.449,136.356 34.824 C 134.146 35.396,133.830 35.230,132.636 32.875 C 131.148 29.938,128.996 28.792,125.969 29.324 C 119.784 30.409,116.402 36.804,115.826 48.500 C 115.373 57.699,115.287 58.004,113.284 57.443 C 111.809 57.030,110.902 56.973,109.158 57.184 L 107.478 57.388 107.039 56.948 C 106.462 56.371,106.361 54.970,106.722 52.528 C 106.867 51.550,107.103 49.775,107.247 48.583 C 107.715 44.701,108.011 42.605,108.260 41.417 C 109.902 33.575,103.129 30.434,98.994 37.120 C 97.330 39.810,96.159 41.531,94.498 43.730 C 93.537 45.002,92.421 46.502,92.019 47.063 C 91.618 47.624,91.239 48.121,91.177 48.167 C 91.116 48.212,90.623 48.813,90.082 49.500 C 84.415 56.705,81.448 56.536,83.102 49.102 C 83.247 48.450,83.422 47.617,83.490 47.250 C 83.558 46.883,83.707 46.246,83.820 45.833 C 83.933 45.421,84.132 44.671,84.262 44.167 C 84.504 43.232,85.179 40.851,85.586 39.500 C 85.710 39.087,85.972 38.337,86.168 37.833 C 86.364 37.329,86.585 36.729,86.659 36.500 C 86.733 36.271,87.204 35.146,87.706 34.000 C 89.638 29.590,89.677 27.853,87.886 26.080 C 86.464 24.672,83.457 24.191,80.997 24.979 M382.881 25.159 C 379.297 26.569,376.162 29.583,374.032 33.667 C 371.034 39.413,371.002 42.001,373.876 46.200 C 374.289 46.802,374.654 47.360,374.688 47.439 C 374.758 47.602,375.842 49.465,376.551 50.641 C 379.256 55.126,378.948 57.019,375.735 55.658 C 374.759 55.245,374.438 55.118,373.667 54.839 C 367.126 52.473,362.723 59.175,367.555 64.139 C 369.174 65.802,371.740 67.523,374.083 68.516 C 378.625 70.442,386.488 69.563,390.250 66.708 C 393.343 64.360,393.272 61.685,389.981 56.656 C 389.296 55.608,388.513 54.392,388.242 53.955 C 387.972 53.517,387.319 52.485,386.792 51.660 C 386.265 50.835,385.833 50.112,385.833 50.052 C 385.833 49.992,385.729 49.825,385.602 49.680 C 383.597 47.405,382.468 41.421,383.628 39.219 C 384.528 37.511,386.121 37.545,388.811 39.332 C 389.369 39.702,389.995 40.079,390.204 40.169 C 390.413 40.259,390.696 40.401,390.833 40.486 C 395.973 43.635,401.984 38.869,399.435 33.667 C 396.024 26.708,388.619 22.902,382.881 25.159 M351.000 25.774 C 348.220 26.128,345.403 28.089,343.485 31.006 C 339.646 36.844,337.662 40.851,336.101 45.917 C 335.299 48.522,335.240 50.195,335.751 55.917 C 335.860 57.141,336.641 59.965,337.147 60.960 C 337.228 61.120,337.467 61.625,337.679 62.083 C 337.891 62.542,338.411 63.517,338.836 64.250 C 339.260 64.983,339.715 65.769,339.845 65.996 C 341.873 69.513,345.711 72.062,349.750 72.573 C 355.142 73.256,356.861 72.977,358.799 71.103 C 362.049 67.961,360.131 63.400,355.083 62.266 C 350.481 61.232,348.500 59.861,348.500 57.708 C 348.500 56.004,350.158 54.789,354.434 53.362 C 361.543 50.990,365.463 45.922,364.246 40.677 C 363.888 39.135,362.839 35.946,362.242 34.583 C 362.121 34.308,361.796 33.540,361.519 32.875 C 359.303 27.561,355.758 25.168,351.000 25.774 M84.886 27.408 C 86.661 28.041,86.890 29.748,85.579 32.583 C 85.325 33.133,85.095 33.658,85.069 33.750 C 84.960 34.127,84.207 35.849,84.107 35.948 C 84.048 36.007,84.000 36.216,84.000 36.411 C 84.000 36.607,83.934 36.838,83.854 36.925 C 83.543 37.263,81.959 42.778,81.080 46.583 C 80.932 47.225,80.736 48.036,80.646 48.385 C 78.350 57.214,82.250 61.044,87.977 55.583 C 89.498 54.133,92.224 51.035,93.250 49.590 C 93.525 49.203,93.950 48.631,94.196 48.318 C 96.844 44.941,98.919 42.010,101.053 38.631 C 103.817 34.255,106.620 36.387,105.593 42.083 C 105.461 42.817,105.233 44.392,105.087 45.583 C 104.447 50.804,104.291 52.003,104.070 53.417 C 103.054 59.920,104.661 62.508,108.571 60.664 C 112.513 58.806,114.054 61.677,111.704 66.500 C 108.923 72.205,101.798 72.516,99.000 67.055 C 97.429 63.989,96.743 63.414,94.667 63.423 C 93.099 63.430,93.191 63.393,88.417 65.920 C 81.456 69.604,76.135 69.032,73.092 64.275 C 71.523 61.822,71.108 59.643,71.218 54.447 C 71.303 50.418,71.275 50.608,72.250 47.377 C 72.395 46.897,72.618 46.147,72.746 45.710 C 72.874 45.274,73.056 44.692,73.152 44.417 C 73.248 44.142,73.488 43.354,73.685 42.667 C 77.304 30.049,80.413 25.813,84.886 27.408 M389.863 27.724 C 391.719 28.422,392.376 28.840,393.807 30.231 C 397.511 33.832,398.351 37.343,395.788 38.506 C 394.183 39.235,392.493 38.750,389.333 36.654 C 384.835 33.670,381.773 34.759,380.763 39.701 C 379.920 43.825,380.975 47.578,384.456 52.833 C 390.262 61.600,390.485 62.110,389.286 63.917 C 388.895 64.505,387.416 65.665,387.052 65.668 C 386.977 65.668,386.729 65.765,386.500 65.884 C 385.579 66.359,382.696 66.966,380.683 67.109 C 375.363 67.485,368.281 63.262,368.273 59.707 C 368.267 56.796,370.845 56.200,374.784 58.200 C 377.345 59.500,378.499 59.818,379.541 59.511 C 382.631 58.602,382.347 54.476,378.837 49.250 C 378.591 48.883,378.340 48.471,378.279 48.333 C 378.219 48.196,377.722 47.408,377.175 46.583 C 373.720 41.369,373.582 40.238,375.844 35.645 C 379.241 28.748,384.575 25.733,389.863 27.724 M321.240 27.752 C 318.728 28.212,316.532 29.064,314.834 30.236 C 308.907 34.329,305.219 38.755,304.823 42.250 C 304.576 44.432,305.478 47.843,306.660 49.200 C 307.209 49.829,309.233 53.251,309.795 54.500 C 310.532 56.138,310.667 56.570,310.667 57.294 C 310.667 58.932,309.253 58.882,306.583 57.150 C 304.438 55.758,303.398 55.426,301.167 55.421 L 299.083 55.417 297.848 56.076 C 293.943 58.162,291.947 63.182,294.194 65.265 C 296.176 67.103,297.364 67.536,303.333 68.598 C 304.112 68.737,305.012 68.918,305.333 69.000 C 306.266 69.239,309.325 69.843,310.069 69.935 C 310.444 69.982,311.158 70.091,311.656 70.177 C 317.594 71.204,321.230 67.099,320.080 60.667 C 319.940 59.887,319.787 58.987,319.738 58.667 C 319.448 56.746,318.386 53.232,317.424 51.005 C 314.919 45.205,314.883 43.259,317.237 40.902 C 319.182 38.954,321.721 38.740,323.917 40.338 C 324.306 40.622,326.041 41.000,326.942 40.998 C 332.941 40.986,335.179 34.531,330.740 30.043 C 328.574 27.854,325.167 27.032,321.240 27.752 M353.750 28.404 C 357.105 29.162,359.242 32.430,361.561 40.348 C 362.897 44.913,359.827 48.916,353.333 51.074 C 347.726 52.938,345.739 54.647,345.761 57.583 C 345.787 60.885,347.934 62.978,352.583 64.231 C 356.095 65.177,356.626 65.441,357.170 66.507 C 358.505 69.124,355.750 70.955,351.489 70.283 C 348.409 69.796,347.027 69.345,345.333 68.270 C 344.058 67.461,341.667 64.704,341.667 64.043 C 341.667 63.988,341.562 63.825,341.433 63.680 C 341.160 63.373,339.903 60.956,339.389 59.750 C 338.057 56.627,337.453 50.848,338.152 47.917 C 338.767 45.341,340.793 40.289,341.996 38.333 C 342.080 38.196,342.744 37.071,343.470 35.833 C 347.328 29.260,349.760 27.503,353.750 28.404 M265.250 29.322 C 260.477 30.738,254.383 36.058,250.465 42.226 C 248.971 44.578,248.920 44.655,248.219 45.595 C 247.450 46.628,247.188 47.197,246.821 48.633 C 246.471 49.998,245.751 52.147,245.412 52.833 C 244.274 55.139,244.229 59.464,245.314 62.216 C 245.588 62.911,246.377 64.557,246.528 64.749 C 246.600 64.841,247.018 65.402,247.455 65.994 C 250.570 70.216,255.713 71.775,261.167 70.149 C 261.762 69.971,262.625 69.718,263.083 69.587 C 265.139 68.997,265.793 68.795,266.417 68.557 C 267.158 68.274,270.489 66.664,270.750 66.462 C 270.842 66.392,271.292 66.085,271.750 65.781 C 272.208 65.477,272.921 64.998,273.333 64.716 C 276.052 62.859,276.458 62.950,279.376 66.061 C 282.737 69.646,285.631 70.300,287.850 67.976 C 289.614 66.129,289.756 63.778,288.237 61.551 C 285.501 57.538,285.129 50.443,287.198 41.714 C 289.032 33.972,286.479 30.696,279.417 31.728 C 277.157 32.058,276.671 31.955,274.150 30.608 C 271.176 29.019,267.878 28.542,265.250 29.322 M326.867 30.486 C 330.467 31.869,331.675 36.359,328.858 37.886 C 327.355 38.700,326.160 38.598,323.917 37.465 C 321.219 36.103,320.220 36.102,317.501 37.460 C 313.037 39.689,311.819 44.318,314.180 50.083 C 314.292 50.358,314.407 50.658,314.434 50.750 C 314.461 50.842,314.776 51.629,315.134 52.500 C 315.927 54.432,316.552 56.554,317.413 60.233 C 318.685 65.663,316.189 68.561,311.083 67.583 C 310.258 67.425,309.384 67.277,309.140 67.253 C 308.897 67.229,308.147 67.083,307.474 66.928 C 304.671 66.281,304.175 66.178,302.583 65.911 C 296.919 64.962,295.339 63.455,296.879 60.473 C 298.496 57.339,301.887 57.057,305.792 59.732 C 308.168 61.359,309.966 62.093,311.065 61.884 C 314.309 61.267,314.825 57.749,312.302 53.451 C 312.044 53.012,311.833 52.623,311.833 52.587 C 311.833 52.472,310.804 50.802,309.533 48.855 C 306.457 44.141,306.535 41.838,309.910 37.834 C 312.071 35.269,316.437 31.898,318.672 31.068 C 321.704 29.942,324.865 29.718,326.867 30.486 M271.211 32.001 C 271.730 32.183,272.736 32.675,273.445 33.095 C 275.967 34.586,276.937 34.803,279.177 34.380 C 284.390 33.396,286.249 35.475,284.873 40.750 C 283.046 47.749,282.935 55.531,284.596 60.087 C 286.095 64.197,286.206 64.699,285.809 65.571 C 285.266 66.762,281.842 65.962,281.306 64.519 C 281.275 64.436,280.951 64.004,280.586 63.559 C 277.258 59.508,275.687 59.543,270.250 63.791 C 270.158 63.863,269.633 64.183,269.083 64.504 C 267.339 65.519,265.806 66.176,263.833 66.753 C 261.133 67.544,260.446 67.735,259.281 68.017 C 255.917 68.834,252.968 67.951,250.317 65.333 C 246.825 61.884,246.122 57.483,248.296 52.667 C 248.756 51.647,249.338 50.333,249.662 49.583 C 252.080 43.992,253.618 41.576,256.917 38.185 C 262.615 32.330,266.888 30.481,271.211 32.001 M128.256 32.054 C 129.454 32.518,130.015 33.284,130.658 35.332 C 131.642 38.473,133.027 39.092,136.083 37.757 C 142.300 35.043,148.027 37.675,149.330 43.844 C 150.145 47.708,149.740 58.844,148.687 61.527 C 148.602 61.741,148.403 62.404,148.243 63.000 C 146.228 70.512,138.835 69.659,140.236 62.076 C 140.387 61.255,140.619 60.021,140.751 59.333 C 140.883 58.646,141.030 57.708,141.076 57.250 C 141.123 56.792,141.248 55.717,141.353 54.861 C 142.462 45.859,137.404 45.932,131.750 55.000 C 131.093 56.054,130.890 56.403,130.247 57.583 C 128.541 60.713,127.130 62.744,125.975 63.733 C 123.137 66.162,119.835 65.145,118.452 61.417 C 117.934 60.018,118.057 49.415,118.652 44.250 C 119.598 36.036,124.023 30.417,128.256 32.054 M349.417 39.197 C 347.482 39.739,347.046 42.484,348.812 43.013 C 350.720 43.585,352.420 40.993,351.004 39.671 C 350.406 39.112,350.075 39.013,349.417 39.197 M263.727 39.650 C 260.951 40.445,258.438 44.458,256.726 50.833 C 254.454 59.295,258.381 63.471,264.417 59.011 C 269.222 55.461,272.833 50.256,272.833 46.882 C 272.833 44.357,270.270 40.167,268.725 40.167 C 268.675 40.167,268.397 40.060,268.109 39.929 C 266.740 39.311,265.244 39.216,263.727 39.650 M267.375 42.466 C 270.650 43.921,271.094 47.673,268.433 51.403 C 267.366 52.897,262.998 57.167,262.536 57.167 C 262.447 57.167,262.285 57.274,262.175 57.406 C 261.847 57.802,260.306 57.914,259.677 57.589 C 258.208 56.829,258.166 54.722,259.533 50.333 C 261.729 43.285,264.028 40.979,267.375 42.466 M155.500 74.905 C 150.945 76.169,149.735 81.619,152.110 90.167 C 152.722 92.370,154.929 96.949,155.644 97.500 C 155.703 97.546,155.970 97.883,156.237 98.250 C 158.600 101.497,164.227 106.271,167.055 107.428 C 167.620 107.659,168.233 107.913,168.417 107.992 C 169.431 108.431,172.426 109.181,173.664 109.306 C 176.990 109.644,179.086 109.402,183.167 108.211 C 183.946 107.983,184.883 107.736,185.250 107.661 C 185.617 107.586,186.128 107.444,186.386 107.346 C 186.644 107.247,187.022 107.167,187.226 107.167 C 187.792 107.167,191.573 106.055,193.167 105.419 C 197.961 103.508,200.838 100.991,203.077 96.750 C 203.416 96.108,203.761 95.471,203.845 95.333 C 206.140 91.561,209.371 84.639,209.953 82.250 C 210.932 78.226,208.883 75.118,205.250 75.117 C 202.924 75.117,201.483 76.257,199.642 79.557 C 194.366 89.010,183.261 93.433,174.083 89.736 C 168.473 87.476,165.707 84.975,162.750 79.489 C 160.717 75.716,158.233 74.146,155.500 74.905 M158.090 77.854 C 159.074 78.317,159.745 79.125,160.726 81.027 C 162.565 84.596,164.306 86.753,166.917 88.693 C 167.959 89.468,169.463 90.417,170.066 90.680 C 170.259 90.764,170.529 90.903,170.667 90.989 C 176.518 94.661,187.142 94.043,193.770 89.645 C 196.480 87.846,201.333 82.763,201.333 81.722 C 201.333 81.514,202.602 79.550,203.069 79.035 C 205.466 76.390,208.271 78.333,207.348 82.000 C 207.070 83.108,206.847 83.752,206.340 84.917 C 206.146 85.362,203.347 91.015,203.163 91.333 C 202.740 92.063,201.620 94.097,200.914 95.417 C 199.227 98.567,196.595 101.319,194.708 101.906 C 194.502 101.970,194.333 102.092,194.333 102.178 C 194.333 102.263,194.254 102.333,194.156 102.333 C 194.058 102.333,193.552 102.531,193.031 102.772 C 191.887 103.301,188.871 104.301,187.833 104.495 C 186.064 104.826,184.525 105.219,181.583 106.091 C 177.558 107.283,174.137 107.246,170.288 105.967 C 166.479 104.702,165.232 103.850,161.148 99.720 C 156.013 94.527,154.763 92.103,153.588 85.059 C 152.700 79.743,154.836 76.325,158.090 77.854 " stroke="none" fill="#f8f8f8" fill-rule="evenodd"></path></g></svg>
