<svg id="svg" version="1.1" width="400" height="400" viewBox="0 0 400 400" xmlns="http://www.w3.org/2000/svg" xmlns:xlink="http://www.w3.org/1999/xlink" ><g id="svgg">


<path id="path1" d="M192.400 1.045 C 187.814 1.600,180.608 2.387,178.200 2.597 C 146.134 5.386,108.102 20.758,80.200 42.207 C -14.587 115.075,-23.867 253.635,60.388 338.022 C 153.172 430.950,307.548 410.105,373.083 295.800 C 385.745 273.716,395.281 244.462,397.401 221.200 C 397.531 219.770,397.931 216.350,398.290 213.600 C 399.193 206.670,399.205 191.105,398.312 184.600 C 397.949 181.960,397.537 178.360,397.397 176.600 C 394.018 134.360,369.332 85.602,335.624 54.594 C 303.169 24.739,260.869 5.505,220.800 2.384 C 218.050 2.169,214.810 1.811,213.600 1.586 C 211.327 1.165,194.880 0.744,192.400 1.045 M245.800 102.626 C 269.059 104.230,292.160 118.765,304.447 139.525 C 334.625 190.514,298.132 254.800,239.010 254.800 C 174.420 254.800,139.053 181.418,179.150 130.600 C 192.936 113.129,219.489 100.793,240.200 102.238 C 241.300 102.315,243.820 102.489,245.800 102.626 M137.478 103.765 L 138.600 104.731 138.600 204.600 L 138.600 304.469 137.478 305.435 L 136.355 306.400 120.360 306.400 L 104.364 306.400 103.382 305.418 L 102.400 304.436 102.400 204.600 L 102.400 104.764 103.382 103.782 L 104.364 102.800 120.360 102.800 L 136.355 102.800 137.478 103.765 " stroke="none" fill="#000000" fill-rule="evenodd"></path></g></svg>
